<?xml version="1.0" encoding="UTF-8"?>
<svg width="30px" height="30px" viewBox="0 0 30 30" version="1.1" xmlns="http://www.w3.org/2000/svg" xmlns:xlink="http://www.w3.org/1999/xlink">
    <title>skill-rest</title>
    <g id="skill-rest" stroke="none" stroke-width="1" fill="none" fill-rule="evenodd">
        <path d="M11.5384615,5.77 C14.7807692,5.77 17.6853846,7.59 19.11,10.46 C19.4046154,10.41 19.7015385,10.3853846 20,10.3853846 C22.0923077,10.3853846 23.9815385,11.6030769 24.8630769,13.4676923 C27.7176923,13.5976923 30,15.9607692 30,18.8469231 C30,21.8161538 27.5838462,24.2315385 24.6153846,24.2315385 L5.38461538,24.2315385 C2.41615385,24.2315385 0,21.8161538 0,18.8469231 C0,16.7561538 1.21692308,14.8676923 3.08076923,13.9846154 C3.21153846,9.43230769 6.95538462,5.77 11.5384615,5.77 Z M6.37884615,16.0238462 L5.60876456,16.0238462 C5.24527106,16.0238462 4.95531941,16.1162888 4.73890962,16.301174 C4.52249983,16.4860592 4.41429493,16.7568175 4.41429493,17.1134489 L4.41429493,17.527329 C4.41429493,17.8614363 4.34028465,18.093716 4.1922641,18.224168 C4.04424355,18.35462 3.80534963,18.419846 3.47558233,18.419846 L3.27884615,18.419846 L3.27884615,19.1124617 L3.47558233,19.1124617 C3.80534963,19.1124617 4.04424355,19.1776877 4.1922641,19.3081397 C4.34028465,19.4385917 4.41429493,19.6708714 4.41429493,20.0049787 L4.41429493,20.4188588 C4.41429493,20.7754902 4.52249983,21.0462485 4.73890962,21.2311337 C4.95531941,21.4160189 5.24527106,21.5084615 5.60876456,21.5084615 L6.37884615,21.5084615 L6.37884615,20.8777871 L6.05844724,20.8777871 C5.94602657,20.8777871 5.84391113,20.8698098 5.75210091,20.8538552 C5.6602907,20.8379007 5.58440675,20.8055223 5.52444906,20.7567201 C5.46074401,20.7079179 5.41296522,20.6370609 5.3811127,20.544149 C5.34926018,20.4512372 5.33333391,20.3315779 5.33333391,20.1851714 L5.33333391,19.8782807 C5.33333391,19.6154997 5.25979206,19.3958898 5.11270835,19.2194511 C4.96562464,19.0430124 4.75624114,18.9031754 4.48455785,18.79994 L4.48455785,18.7323677 C4.75624114,18.6291323 4.96562464,18.4892953 5.11270835,18.3128566 C5.25979206,18.1364179 5.33333391,17.916808 5.33333391,17.654027 L5.33333391,17.3471363 C5.33333391,17.2007297 5.34926018,17.0810705 5.3811127,16.9881587 C5.41296522,16.8952468 5.46074401,16.8243898 5.52444906,16.7755876 C5.58628042,16.7286624 5.6626328,16.6967533 5.75350617,16.6798602 C5.84437955,16.6629671 5.94602657,16.6545206 6.05844724,16.6545206 L6.37884615,16.6545206 L6.37884615,16.0238462 Z M24.7950816,16.0238462 L24.025,16.0238462 L24.025,16.6545206 L24.3453989,16.6545206 C24.4578196,16.6545206 24.5594666,16.6629671 24.65034,16.6798602 C24.7412134,16.6967533 24.8175657,16.7286624 24.8793971,16.7755876 C24.9431021,16.8243898 24.9908809,16.8952468 25.0227335,16.9881587 C25.054586,17.0810705 25.0705122,17.2007297 25.0705122,17.3471363 L25.0705122,17.654027 C25.0705122,17.916808 25.1440541,18.1364179 25.2911378,18.3128566 C25.4382215,18.4892953 25.647605,18.6291323 25.9192883,18.7323677 L25.9192883,18.79994 C25.647605,18.9031754 25.4382215,19.0430124 25.2911378,19.2194511 C25.1440541,19.3958898 25.0705122,19.6154997 25.0705122,19.8782807 L25.0705122,20.1851714 C25.0705122,20.3315779 25.054586,20.4512372 25.0227335,20.544149 C24.9908809,20.6370609 24.9431021,20.7079179 24.8793971,20.7567201 C24.8175657,20.8036453 24.7412134,20.8355544 24.65034,20.8524475 C24.5594666,20.8693405 24.4578196,20.8777871 24.3453989,20.8777871 L24.025,20.8777871 L24.025,21.5084615 L24.7950816,21.5084615 C25.1585751,21.5084615 25.4485267,21.4160189 25.6649365,21.2311337 C25.8813463,21.0462485 25.9895512,20.7754902 25.9895512,20.4188588 L25.9895512,20.0049787 C25.9895512,19.6708714 26.0635615,19.4385917 26.211582,19.3081397 C26.3596026,19.1776877 26.5984965,19.1124617 26.9282638,19.1124617 L27.125,19.1124617 L27.125,18.419846 L26.9282638,18.419846 C26.5984965,18.419846 26.3596026,18.35462 26.211582,18.224168 C26.0635615,18.093716 25.9895512,17.8614363 25.9895512,17.527329 L25.9895512,17.1134489 C25.9895512,16.7568175 25.8813463,16.4860592 25.6649365,16.301174 C25.4485267,16.1162888 25.1585751,16.0238462 24.7950816,16.0238462 Z M17.6351018,16.62 C17.0862469,16.62 16.6371412,16.7436288 16.2877848,16.9908865 C15.9384283,17.2381442 15.7637501,17.5573228 15.7637501,17.9484224 C15.7637501,18.2398668 15.8410206,18.483834 15.9955617,18.6803239 C16.1501027,18.8768139 16.4034564,19.0324076 16.7556227,19.147105 C16.9092271,19.1978728 17.0736026,19.2397091 17.2487492,19.2726142 C17.4238957,19.3055192 17.5901444,19.3407745 17.7474953,19.3783803 C17.8973533,19.4141057 18.0111517,19.4653435 18.0888906,19.5320937 C18.1666294,19.5988439 18.2054988,19.678286 18.2054988,19.77042 C18.2054988,19.8700752 18.1788054,19.9452867 18.1254185,19.9960544 C18.0720315,20.0468221 18.0041271,20.0891286 17.9217052,20.1229737 C17.8542691,20.1492977 17.7671642,20.1681006 17.6603904,20.1793823 C17.5536165,20.190664 17.4674482,20.1963049 17.4018853,20.1963049 C17.1471267,20.1963049 16.8815971,20.1483576 16.6052964,20.052463 C16.3289957,19.9565684 16.0793885,19.8193075 15.8564747,19.6406802 L15.7384615,19.6406802 L15.7384615,20.6475737 C15.9632485,20.741588 16.2044262,20.8191498 16.4619947,20.8802591 C16.7195631,20.9413684 17.0216206,20.9719231 17.3681673,20.9719231 C17.9675993,20.9719231 18.4419935,20.8426534 18.7913499,20.584114 C19.1407064,20.3255746 19.3153846,19.9894734 19.3153846,19.5758104 C19.3153846,19.2862462 19.2390507,19.0507404 19.0863829,18.8692927 C18.933715,18.6878451 18.6972204,18.5444732 18.3768989,18.4391772 C18.2139283,18.3865292 18.0617288,18.3451629 17.9203003,18.3150783 C17.7788718,18.2849937 17.6313554,18.253969 17.4777509,18.2220041 C17.2435978,18.1731166 17.0843737,18.1190584 17.0000786,18.0598294 C16.9157834,18.0006004 16.8736359,17.9155174 16.8736359,17.8045805 C16.8736359,17.7312493 16.899861,17.6659094 16.9523113,17.6085606 C17.0047616,17.5512119 17.0675147,17.5084354 17.1405704,17.4802311 C17.2229923,17.4463859 17.3086924,17.4233524 17.3976706,17.4111305 C17.4866487,17.3989087 17.5760952,17.3927977 17.66601,17.3927977 C17.9207686,17.3927977 18.1703759,17.4383947 18.4148317,17.5295886 C18.6592876,17.6207825 18.8658106,17.7340697 19.0344009,17.8694504 L19.1496042,17.8694504 L19.1496042,16.902043 C18.9529156,16.8211907 18.7201674,16.7539704 18.4513596,16.7003822 C18.1825518,16.6467941 17.9104659,16.62 17.6351018,16.62 Z M9.3320942,16.6796154 L7.51153846,16.6796154 L7.51153846,20.8526923 L8.59143332,20.8526923 L8.59143332,19.3224707 L9.09180345,19.3224707 L10.2395451,20.8526923 L11.5653846,20.8526923 L10.1603905,19.0646311 C10.4280084,18.9357114 10.6339046,18.7740946 10.7780791,18.5797807 C10.9222535,18.3854668 10.9943407,18.1341667 10.9943407,17.8258803 C10.9943407,17.601672 10.9476961,17.4152989 10.8544067,17.2667609 C10.7611174,17.1182229 10.6353181,16.9972438 10.4770089,16.9038237 C10.3205843,16.8104036 10.152852,16.7496805 9.97381182,16.7216544 C9.79477166,16.6936284 9.58086579,16.6796154 9.3320942,16.6796154 Z M15.0230769,16.6796154 L11.9826923,16.6796154 L11.9826923,20.8526923 L15.0230769,20.8526923 L15.0230769,20.0455424 L13.0610831,20.0455424 L13.0610831,19.0141843 L14.8819263,19.0141843 L14.8819263,18.2070344 L13.0610831,18.2070344 L13.0610831,17.4867653 L15.0230769,17.4867653 L15.0230769,16.6796154 Z M23.3096154,16.6796154 L19.6134615,16.6796154 L19.6134615,17.4867653 L20.9214612,17.4867653 L20.9214612,20.8526923 L22.0016157,20.8526923 L22.0016157,17.4867653 L23.3096154,17.4867653 L23.3096154,16.6796154 Z M8.98437936,17.4475288 C9.11441905,17.4475288 9.22843937,17.4507985 9.3264403,17.4573379 C9.42444123,17.4638773 9.51019204,17.4820942 9.58369274,17.5119887 C9.6892322,17.5549619 9.76367521,17.6138166 9.80702178,17.6885527 C9.85036834,17.7632888 9.87204163,17.8529721 9.87204163,17.9576027 C9.87204163,18.075312 9.85460877,18.1691993 9.81974305,18.2392643 C9.78487734,18.3093294 9.72975181,18.3733222 9.65436648,18.4312427 C9.57521189,18.4910316 9.47721096,18.5293338 9.36036369,18.5461495 C9.24351643,18.5629651 9.09839967,18.5713729 8.92501341,18.5713729 L8.59143332,18.5713729 L8.59143332,17.4475288 Z" id="Combined-Shape" fill="#7485E1" fill-rule="nonzero"></path>
    </g>
</svg>