<?xml version="1.0" encoding="UTF-8"?>
<svg width="60px" height="60px" viewBox="0 0 60 60" version="1.1" xmlns="http://www.w3.org/2000/svg" xmlns:xlink="http://www.w3.org/1999/xlink">
    <title>skill-mern</title>
    <g id="skill-mern" stroke="none" stroke-width="1" fill="none" fill-rule="evenodd">
        <path d="M21.5,32.9606709 C23.0947098,33.881377 23.3431822,36.5493326 22.4747852,39.9031873 C25.8135583,40.8283138 28,42.3775213 28,44.2190011 C28,46.060481 25.8135583,47.6096884 22.4746292,48.5345499 C23.3431822,51.8886696 23.0947098,54.5566252 21.5,55.4773314 C19.9051256,56.3981325 17.4700339,55.2790121 14.9994467,52.8495095 C12.5293854,55.2792789 10.0946843,56.3980227 8.5,55.4773314 C6.90529021,54.5566252 6.65681777,51.8886696 7.52521485,48.5348149 C4.18644169,47.6096884 2,46.060481 2,44.2190011 C2,42.3775213 4.18644169,40.8283138 7.5253708,39.9034523 C6.65681777,36.5493326 6.90529021,33.881377 8.5,32.9606709 C10.0948744,32.0398697 12.5299661,33.1589901 15.0005533,35.5884927 C17.4706146,33.1587233 19.9053157,32.0399795 21.5,32.9606709 Z M21.6128699,48.7537851 L21.4636537,48.7875053 C20.3796994,49.0313759 19.1979549,49.2141604 17.9477472,49.3264398 C17.1930905,50.4001524 16.4082864,51.3702946 15.6202521,52.2133543 C17.8096594,54.3738617 19.8784676,55.3918028 21.0575819,54.7110408 C22.1998532,54.0515502 22.3789841,51.8718578 21.6829565,49.0307654 L21.6128699,48.7537851 Z M8.38663834,48.7532912 L8.37932892,48.7837739 C7.61150048,51.7451002 7.76726314,54.0325648 8.94241805,54.7110408 C10.1215511,55.3918136 12.1904065,54.3738293 14.3792768,52.2132274 C13.5917136,51.3702946 12.8069095,50.4001524 12.0514401,49.3265934 C10.7442463,49.2089695 9.51117973,49.0143245 8.38663834,48.7532912 Z M13.2057532,49.4087686 L13.3876597,49.6494289 C13.920528,50.3503468 14.4617697,50.9943403 15.0001739,51.5733092 C15.5994382,50.9285209 16.2025695,50.2030831 16.7937347,49.4081846 C16.2075859,49.4400484 15.6085819,49.4561323 15,49.4561323 C14.5942787,49.4561323 14.1928143,49.4489839 13.7964261,49.4349502 L13.2057532,49.4087686 Z M15,39.8667061 C14.1570605,39.8667061 13.3346419,39.8993199 12.5409,39.9608906 C12.091535,40.6172195 11.6521804,41.3130047 11.2308019,42.0428536 C10.8093495,42.7728305 10.4263988,43.501343 10.0828606,44.2195002 C10.4267137,44.9372584 10.8095228,45.6654719 11.2308019,46.3951486 C11.6520688,47.1248043 12.0913025,47.8204144 12.5412682,48.4767515 C13.3346419,48.5386823 14.1570605,48.5712962 15,48.5712962 C15.8429395,48.5712962 16.6653581,48.5386823 17.4591,48.4771116 C17.9086975,47.8204144 18.3479312,47.1248043 18.7691981,46.3951486 C19.1904772,45.6654719 19.5732863,44.9372584 19.9167156,44.2193879 C19.5736012,43.501343 19.1906505,42.7728305 18.7691981,42.0428536 C18.3478196,41.3130047 17.908465,40.6172195 17.4583744,39.9607295 C16.6653581,39.8993199 15.8429395,39.8667061 15,39.8667061 Z M20.3911961,45.2610158 L20.3509194,45.3397593 C20.0963258,45.8371819 19.8243406,46.3372604 19.5354886,46.8375667 C19.23128,47.3644716 18.9179362,47.8750485 18.5976071,48.3673487 C19.5812511,48.2524614 20.5107808,48.0929013 21.3687518,47.8960855 C21.1103336,47.0546758 20.7838056,46.1700219 20.3911961,45.2610158 Z M9.6088841,45.2609618 L9.49094146,45.5378873 C9.1504093,46.3497132 8.86334723,47.1403341 8.63116425,47.8959969 C9.48921921,48.0929013 10.4187489,48.2524614 11.4024206,48.3669566 C11.0820638,47.8750485 10.76872,47.3644716 10.4645114,46.8375667 C10.1604025,46.3108347 9.87498931,45.7843552 9.6088841,45.2609618 Z M22.2334217,40.7594107 L22.1585228,41.0002229 C21.8318393,42.0320614 21.4095758,43.1139941 20.8976687,44.2185513 C21.4492412,45.409497 21.897016,46.5741351 22.2331429,47.6780513 C25.1990744,46.8632771 27.1151639,45.5805686 27.1151639,44.2190011 C27.1151639,42.8986932 25.3134415,41.6525375 22.500111,40.834807 L22.2334217,40.7594107 Z M7.766622,40.7591789 L7.58990552,40.8088873 C4.72504848,41.626065 2.8848361,42.884665 2.8848361,44.2190011 C2.8848361,45.5805686 4.80092562,46.8632771 7.76657827,47.6785915 C8.10298395,46.5741351 8.55075879,45.409497 9.10274091,44.218567 C8.55040857,43.0276513 8.10269204,41.863051 7.766622,40.7591789 Z M15,41.8787245 C16.2924991,41.8787245 17.3402766,42.926502 17.3402766,44.2190011 C17.3402766,45.5115002 16.2924991,46.5592777 15,46.5592777 C13.7075009,46.5592777 12.6597234,45.5115002 12.6597234,44.2190011 C12.6597234,42.926502 13.7075009,41.8787245 15,41.8787245 Z M11.4023929,40.0706535 L11.1644609,40.0997511 C10.2686331,40.2116342 9.41972285,40.3610432 8.63124823,40.5419168 C8.88966639,41.3833264 9.21619445,42.2679803 9.60880391,43.1769864 C9.87498931,42.653647 10.1604025,42.1271675 10.4645114,41.6004355 C10.6673172,41.2491656 10.874183,40.9051525 11.0844719,40.5689738 L11.4023929,40.0706535 Z M18.5975794,40.0710456 L18.6460648,40.1453481 C18.9495486,40.6145439 19.2466366,41.1001292 19.5354886,41.6004355 C19.8395975,42.1271675 20.1250107,42.653647 20.3911159,43.1770404 C20.7838056,42.2679803 21.1103336,41.3833264 21.3688358,40.5420053 C20.5107808,40.345101 19.5812511,40.1855408 18.5975794,40.0710456 Z M15.8469314,36.0051405 L15.6202521,36.224648 C16.4082864,37.0677076 17.1930905,38.0378498 17.9485599,39.1114088 C19.2557537,39.2290327 20.4888203,39.4236777 21.6133617,39.684711 C22.3895387,36.7083516 22.2367007,34.4077259 21.0575819,33.7269614 C19.9191506,33.0696878 17.9513605,33.9959187 15.8469314,36.0051405 L15.8469314,36.0051405 Z M8.94241805,33.7269614 C7.76329933,34.4077259 7.61046129,36.7083516 8.38713013,39.6842171 C9.51117973,39.4236777 10.7442463,39.2290327 12.0522528,39.1115624 C12.8069095,38.0378498 13.5917136,37.0677076 14.3797479,36.224648 C12.1904065,34.0641729 10.1215511,33.0461886 8.94241805,33.7269614 Z M14.9998261,36.864693 L14.8915808,36.9823089 C14.3278086,37.5972933 13.7617542,38.2828905 13.2062653,39.0298176 C13.7924141,38.9979538 14.3914181,38.9818699 15,38.9818699 C15.6085819,38.9818699 16.2075859,38.9979538 16.7942468,39.0292336 C16.2025695,38.2349191 15.5994382,37.5094813 14.9998261,36.864693 Z" id="Shape" fill="#7485E1" fill-rule="nonzero"></path>
        <path d="M15.0125235,2.00168579 L15.0350931,2.01517213 L15.4765401,2.63357852 C15.8891008,3.20054674 16.5288332,4.05351227 17.2322801,4.89787628 C25.8424038,16.0071833 17.1765452,23.7484895 15.9131079,24.7778368 L15.6742722,24.9655129 L15.6280249,25.5985036 C15.535566,26.7438671 15.3946226,28 15.3946226,28 L14.5956437,28 L14.4489496,26.5711488 C14.3990935,26.0482491 14.34796,25.4631948 14.316004,24.9655129 L14.1766501,24.8664885 C13.4007789,24.2537784 3.88014495,16.365548 12.7679761,4.89787628 L13.0455715,4.56037024 C14.0025484,3.38238163 14.7919143,2.26452253 14.9651732,2.01517213 C14.9784865,2.00168579 14.9962442,1.99719035 15.0125235,2.00168579 Z M15.024597,11.0310417 C15.024597,10.9896528 14.9754112,10.9896528 14.9754112,11.0310417 L14.5,24.3583995 C14.6065625,24.5757275 15,25 15,25 L15.2100421,24.7606978 C15.3217229,24.6274636 15.4467229,24.4670635 15.5,24.3583995 L15.024597,11.0310417 Z" id="Shape" fill="#7485E1" fill-rule="nonzero"></path>
        <path d="M46.5048082,32.2557705 L56.0035157,37.759905 C56.6171027,38.1152412 57,38.7806023 57,39.4960444 L57,50.4900044 C57,51.2030617 56.6171027,51.8684229 56.0035157,52.2261439 L46.5048082,57.7278935 C46.2003929,57.9043692 45.8555475,57.9949919 45.5035674,57.9949919 L45.5045187,58 C45.157295,58 44.8124496,57.9086619 44.5080343,57.7329016 L41.33617,55.8498581 C40.9317525,55.6230687 41.0410272,55.5214073 41.1788728,55.4628327 L41.214643,55.4486687 L41.4927867,55.3500811 C41.9292701,55.1931844 42.1060077,55.1093755 42.683921,54.7802721 C42.7547927,54.7397304 42.8475442,54.7540393 42.9200807,54.7969658 L45.3568297,56.2469284 C45.4448247,56.2946246 45.5696826,56.2946246 45.6512563,56.2469284 L55.1523421,50.7475636 C55.2403371,50.6974827 55.297415,50.594936 55.297415,50.4900044 L55.297415,39.4960444 C55.297415,39.3863433 55.2403371,39.2885662 55.1504395,39.2337157 L45.6531589,33.7391205 C45.5651639,33.6866547 45.4486299,33.6866547 45.3606349,33.7391205 L35.865257,39.2337157 C35.7732189,39.2861814 35.7147141,39.3887281 35.7147141,39.4936596 L35.7147141,50.4876196 C35.7147141,50.5925511 35.771792,50.692713 35.8621652,50.742794 L38.4639644,52.249992 C39.8766415,52.9582796 40.7399442,52.1235972 40.7399442,51.2841452 L40.7399442,40.4332736 C40.7399442,40.2782611 40.8612346,40.1590208 41.0158205,40.1590208 L42.2192121,40.1590208 C42.3690415,40.1590208 42.4927102,40.2782611 42.4927102,40.4332736 L42.4927102,51.2889148 C42.4927102,53.1776819 41.4653087,54.262769 39.6792472,54.262769 L39.5491782,54.2624638 L39.4849656,54.2617388 C39.0148267,54.2541837 38.5520546,54.1912248 37.4888843,53.6665673 L34.9964843,52.2261439 C34.3805191,51.8684229 34,51.2006769 34,50.4876196 L34,39.4936596 C34,38.7782175 34.3805191,38.1104716 34.9964843,37.7575202 L44.507083,32.2557705 C45.1087788,31.9147432 45.9078689,31.9147432 46.5048082,32.2557705 Z M47.7594313,40 C50.878411,40 52.4244885,41.102732 52.6195771,43.4721156 C52.626893,43.5540754 52.5976297,43.6335516 52.5439803,43.6931587 C52.4903309,43.7502822 52.4147341,43.7850531 52.3366986,43.7850531 L51.071061,43.7850531 C50.9393762,43.7850531 50.8247616,43.6906751 50.7979369,43.5615263 C50.4971218,42.2061503 49.7759571,41.7602061 47.8329288,41.7487054 L47.7545541,41.748476 C45.5134733,41.748476 45.2525422,42.5432378 45.2525422,43.1393091 L45.2534369,43.2029931 C45.2725989,43.8471817 45.6200293,44.0672295 48.2337015,44.4324883 L48.7614712,44.5049705 C51.6345912,44.9087797 53,45.4994039 53,47.5999097 C53,49.7606683 51.2295706,51 48.1422928,51 L48.1564367,50.9883269 C43.8937498,50.9883269 43,48.9954617 43,47.3239783 C43,47.165026 43.1258322,47.0383608 43.282147,47.0383608 L44.5404687,47.0383608 C44.6794694,47.0383608 44.7965225,47.1414315 44.81847,47.2812599 L44.831573,47.3664247 C45.0322414,48.601749 45.6177329,49.2315756 48.0677978,49.2455731 L48.1520472,49.2458117 C50.1779777,49.2458117 51.0548865,48.7859381 51.0779105,47.7085026 L51.0780568,47.6263831 L51.0770106,47.5886753 C51.0544694,47.006497 50.7228585,46.5662005 47.9082758,46.2617693 L47.4810975,46.2174126 C44.9068218,45.9411087 43.3236033,45.3236622 43.3236033,43.193949 C43.3236033,41.1921427 44.9818568,40 47.7594313,40 Z" id="Shape" fill="#7485E1" fill-rule="nonzero"></path>
        <path d="M45,2 C52.1797017,2 58,7.82029825 58,15 C58,22.1797017 52.1797017,28 45,28 C37.8202983,28 32,22.1797017 32,15 C32,7.82029825 37.8202983,2 45,2 Z M41.0669721,10.0204472 C38.3391648,9.76907323 36,11.8678986 36,14.5286128 L36,16.3340463 C36,18.3015928 37.2148265,20.0818313 39.0577429,20.7317189 C41.4165345,21.5633482 43.992167,20.3929589 44.9098795,18.1685335 L44.9350694,18.1060892 L45.1991679,17.4509708 L44.268647,17.4509708 C43.8109034,17.4509708 43.3891778,17.6794351 43.1311119,18.0522976 L43.0957415,18.1041818 C42.3366172,19.2021726 40.9067929,19.6829113 39.6003541,19.2158439 L39.5652045,19.2030148 C38.4558797,18.7897685 37.7033131,17.7141561 37.6443106,16.4998001 L37.6428204,16.465649 L45.2453262,16.4656667 L45.2453262,14.6471824 C45.2453262,12.2708516 43.4395538,10.2390218 41.0669721,10.0204472 Z M45.126331,10.3238332 L43.8550732,10.3238332 L44.4561842,11.0939815 L47.8565446,15.4505975 L44.3784765,19.9070177 L43.7774015,20.6771571 L45.0713363,20.6770001 C45.5628488,20.6702029 46.0244311,20.4429936 46.3234745,20.0599795 L48.8886722,16.7733149 L51.4538769,20.0599154 C51.757571,20.4488861 52.2287937,20.6771571 52.7287712,20.6771571 L54,20.6771571 L53.398925,19.9070177 L49.9207997,15.4505975 L53.3212173,11.0939815 L53.9223283,10.3238332 L52.6283702,10.3239901 C52.136981,10.3307839 51.6754996,10.5578791 51.3761204,10.9407231 L48.8883741,14.1282135 L46.4008985,10.9410798 C46.0978278,10.5522982 45.6262049,10.3238332 45.126331,10.3238332 Z M40.6718865,11.6066471 C42.2931658,11.6325083 43.6047546,12.9335467 43.6047546,14.5286128 L43.6047546,14.8592689 L37.6405638,14.8592689 L37.6405638,14.5286128 C37.6405638,12.917435 38.9787909,11.6062547 40.6226631,11.6062547 Z" id="Combined-Shape" fill="#7485E1"></path>
    </g>
</svg>