<?xml version="1.0" encoding="UTF-8"?>
<svg width="33px" height="24px" viewBox="0 0 33 24" version="1.1" xmlns="http://www.w3.org/2000/svg" xmlns:xlink="http://www.w3.org/1999/xlink">
    <title>iris</title>
    <g id="iris" stroke="none" stroke-width="1" fill="none" fill-rule="evenodd">
        <path d="M7.8362934,0.228866036 C9.4784621,-0.443517998 11.7985221,2.79132284 11.2627978,5.34020736 C11.062027,6.29544011 9.92853615,7.89434343 8.65272519,9.38709312 L8.48952637,9.57452283 L8.49238152,9.58744037 C8.63929879,10.5679959 8.96969929,11.4484728 9.61909128,12.749202 L10.3314135,14.1498616 C10.5404334,14.5725202 10.7037903,14.9311981 10.8422963,15.2812083 C11.3121876,16.4686423 11.4740401,17.5286777 11.2671742,18.6360275 C10.6650906,21.8589715 8.38907959,23.6085494 5.05297437,23.951188 C2.65626256,24.1973451 1.24215394,22.5150531 0.895755156,19.4260148 C0.834208775,18.8771701 1.2292421,18.3823504 1.77808679,18.320804 C2.32693147,18.2592576 2.8217512,18.6542909 2.88329758,19.2031356 C3.12169304,21.3290459 3.74843728,22.0746511 4.84863696,21.9616538 C7.36487452,21.7032207 8.87668801,20.5410842 9.30118516,18.2687577 C9.41770203,17.6450448 9.34348512,17.0202863 9.07813905,16.2714859 L8.84945868,15.687851 C8.73749659,15.4250584 8.59971417,15.1531649 8.0931117,14.1616356 L7.99371789,13.9671172 C7.51033927,13.0211508 7.16000705,12.252397 6.91206041,11.5215266 L6.85052637,11.3335228 L6.82793735,11.3572197 C6.11392552,12.0658165 5.47770224,12.6197835 5.07264591,12.8736162 L4.96802265,12.9352926 C4.44652657,13.2208082 3.8177155,13.2208082 3.05379444,13.0276335 C2.51836338,12.8922378 2.19407071,12.3484252 2.32946649,11.8129941 C2.46486227,11.277563 3.00867488,10.9532704 3.54410595,11.0886661 C3.86449479,11.1696837 4.02824557,11.1696837 4.00756329,11.1810071 L4.06560384,11.1380698 C4.27359232,10.9691881 4.93519501,10.3545939 5.6445363,9.6503477 L6.14371637,9.14725553 L6.39452637,8.88652283 L6.31993501,8.15593325 C5.9099395,3.85471269 6.18633042,1.0455026 7.712824,0.284798519 L7.8362934,0.228866036 Z M8.54791716,2.50814314 L8.41352637,2.36852283 L8.40555278,2.39345702 C8.21522729,3.00868584 8.1285813,4.46034588 8.21164487,6.34399884 L8.23252637,6.77052283 L8.26844826,6.72552437 C8.8028563,6.02311359 9.15815294,5.43571925 9.2785823,5.03379881 L9.30556162,4.92883561 C9.45836583,4.20181942 9.25020687,3.45211024 8.78114195,2.79809683 C8.70639304,2.69387502 8.62746939,2.59632061 8.54791716,2.50814314 L8.54791716,2.50814314 Z M16.9758777,14.0628525 L17.1700598,14.0444426 C17.8955527,13.963452 18.4178578,14.1081511 18.8858763,14.6140909 C19.2609113,15.0195132 19.2362776,15.6521988 18.8308554,16.0272338 C18.4566194,16.3734199 17.888739,16.3790599 17.508612,16.0590036 L17.4618467,16.0142667 L17.4537537,16.0200076 L17.3919519,16.0320955 L17.2762524,16.0449872 L17.0266567,16.0961591 L15.4258467,16.5022667 L15.448786,17.2943786 C15.4569529,17.520722 15.4667032,17.757971 15.4779966,18.0066966 L15.5788403,19.8965657 L15.6865295,21.6647102 C15.7198806,22.215987 15.3000188,22.6899216 14.7487419,22.7232727 C14.1974651,22.7566237 13.7235305,22.3367619 13.6901795,21.7854851 L13.5334684,19.1584828 L13.4797345,18.0905315 C13.4391227,17.1949356 13.4178467,16.4389207 13.4178467,15.7923584 C13.4178467,15.3538981 13.6000805,14.9075024 14.1993765,14.7533021 L16.5129824,14.1611943 C16.799493,14.0905762 16.8950588,14.0720108 16.9758777,14.0628525 Z M27.3712576,12.3858113 C28.0483706,11.956903 28.7282339,12.2153331 29.2274493,12.7899782 C29.5896501,13.2069063 29.5452848,13.8385151 29.1283567,14.2007159 C28.8397142,14.4514703 28.4481774,14.5073616 28.1143747,14.3796728 L28.0974814,14.3718727 L28.0609287,14.4072797 C27.6711223,14.7939029 27.1621937,15.3866971 27.0033788,15.6688455 L27.0438368,15.6906874 L27.1741421,15.741199 C27.5541921,15.8732365 28.0881052,15.9676504 29.0224234,16.0817101 C31.0465066,16.3288059 32.7176514,18.017992 32.7176514,19.9094238 C32.7176514,21.6639274 31.1693695,22.7296616 29.4699202,23.0236909 C28.5380966,23.1849099 27.577601,23.1849099 26.2359256,23.0318889 C25.0208205,22.8933035 24.1432255,22.2032101 23.7485451,21.0635823 C23.5678076,20.5417083 23.8443534,19.9721292 24.3662273,19.7913918 C24.8508245,19.6235641 25.3765553,19.8500266 25.5938958,20.3010761 L25.6384178,20.409074 C25.7788936,20.8146936 26.0051398,20.9926014 26.4625607,21.0447713 C27.6296744,21.1778831 28.4069717,21.1778831 29.1289568,21.0529692 C29.9844462,20.9049572 30.7176514,20.4002676 30.7176514,19.9094238 C30.7176514,19.0794103 29.8445931,18.1969267 28.7800668,18.0669716 C26.0166307,17.729617 24.9538574,17.3603869 24.9538574,15.7967224 C24.9538574,14.6709378 26.4852428,12.9470457 27.3712576,12.3858113 Z M20.5079956,11.71521 C21.3304354,11.71521 21.9010191,11.7764685 22.3042724,11.9424904 C22.8149685,12.1527472 23.0585227,12.7371951 22.8482658,13.2478912 C22.6530273,13.722109 22.1351446,13.965985 21.6532655,13.8300616 L21.5428651,13.7918846 C21.4539308,13.7552698 21.0807992,13.71521 20.5079956,13.71521 C19.9557109,13.71521 19.5079956,13.2674947 19.5079956,12.71521 C19.5079956,12.1629252 19.9557109,11.71521 20.5079956,11.71521 Z M20.4445079,14.8193671 C20.9842863,14.702501 21.5166019,15.0453392 21.633468,15.5851176 L21.9640141,17.1323524 C22.3168618,18.8100038 22.5550292,20.0421378 22.6793845,20.8348245 C22.764979,21.3804361 22.3920615,21.8921298 21.8464499,21.9777243 C21.3008383,22.0633189 20.7891446,21.6904014 20.7035501,21.1447898 L20.6115956,20.5973874 C20.4319854,19.5816607 20.1206834,18.0494854 19.6787574,16.0083272 C19.5618913,15.4685487 19.9047295,14.9362332 20.4445079,14.8193671 Z" id="Shape" fill="#FFFFFF" fill-rule="nonzero"></path>
    </g>
</svg>