<?xml version="1.0" encoding="UTF-8"?>
<svg width="112px" height="134px" viewBox="0 0 112 134" version="1.1" xmlns="http://www.w3.org/2000/svg" xmlns:xlink="http://www.w3.org/1999/xlink">
    <title>concentration-game-logo</title>
    <g id="concentration-game-logo" stroke="none" stroke-width="1" fill="none" fill-rule="evenodd" stroke-linecap="round" stroke-linejoin="round">
        <path d="M56,132.721191 C49.5683594,132.721191 40.5727539,131.005859 36.1064453,131.005859 C31.6401367,131.005859 30.5703125,133.041748 23.9541016,132.721191 C17.3378906,132.400635 12.1516113,126.449951 10.3774414,119.135742 C8.60327148,111.821533 9.96899414,106.99707 9.59228516,106.305664 C9.21557617,105.614258 5.09521484,107.287598 2.16699219,102.976563 C-0.88144121,98.4506203 3.31287845,85.9143898 14.7499512,65.3678711 C11.6444824,65.3060221 8.98646952,65.826903 6.77591247,66.9305138 C8.76273905,65.888752 11.420752,65.3678711 14.7499512,65.3678711 L17.3105296,60.2070081 C13.8184838,59.2057866 10.583655,59.2707453 7.6060432,60.4018842 C10.4767865,59.2527439 13.7116153,59.1877853 17.3105296,60.2070081 C21.4366609,45.721339 29.6650391,38.0760596 29.6650391,36.7832031 C29.6650391,34.6815186 27.333252,33.4067383 27.1459961,28.1894531 C26.9587402,22.972168 33.6210938,0.336669922 39.6030273,1.12573242 C45.5849609,1.91479492 48.2654268,16.5324744 45.5926514,28.7874756 C45.2292475,30.4586168 47.9822428,28.0138677 56,28.0138677 C64.0177572,28.0138677 48.1869338,28.0138677 56.204691,28.0138677 C64.2224482,28.0138677 66.9754435,30.4586168 66.6120397,28.7874756 C63.9392642,16.5324744 66.6197301,1.91479492 72.6016637,1.12573242 C78.5835973,0.336669922 85.2459508,22.972168 85.0586949,28.1894531 C84.8714391,33.4067383 82.539652,34.6815186 82.539652,36.7832031 C82.539652,38.0760596 90.7680301,45.721339 94.8941615,60.2070081 C98.4930757,59.1877853 101.727904,59.2527439 104.598648,60.4018842 C101.621036,59.2707453 98.3862072,59.2057866 94.8941615,60.2070081 L97.4547399,65.3678711 C100.783939,65.3678711 103.441952,65.888752 105.428779,66.9305138 C103.218222,65.826903 100.560209,65.3060221 97.4547399,65.3678711 C108.891813,85.9143898 113.086132,98.4506203 110.037699,102.976563 C107.109476,107.287598 102.989115,105.614258 102.612406,106.305664 C102.235697,106.99707 103.60142,111.821533 101.82725,119.135742 C100.05308,126.449951 94.8668004,132.400635 88.2505895,132.721191 C81.6343785,133.041748 80.5645543,131.005859 76.0982457,131.005859 C71.6319371,131.005859 62.6363317,132.721191 56.204691,132.721191" id="Path-Copy" stroke="#19E1C3" fill="#19E1C3"></path>
    </g>
</svg>