<?xml version="1.0" encoding="UTF-8"?>
<svg width="30px" height="30px" viewBox="0 0 30 30" version="1.1" xmlns="http://www.w3.org/2000/svg" xmlns:xlink="http://www.w3.org/1999/xlink">
    <title>skill-json</title>
    <g id="skill-json" stroke="none" stroke-width="1" fill="none" fill-rule="evenodd">
        <path d="M5.11643773,13.9149511 L22.1698746,13.9149511 L22.1698746,9.11598605 L17.1261126,9.11598605 C16.5973692,9.11598605 15.8589285,8.82933963 15.5101828,8.48059399 C15.1614372,8.13184835 14.9476898,7.50253122 14.9476898,6.97378783 L14.9476898,1.86522668 L2.12442513,1.86522668 C2.07965069,1.86522668 2.04590111,1.8877264 2.02340139,1.91022612 C1.98965182,1.93272584 1.97840196,1.96647542 1.97840196,2.01147486 L1.97840196,27.99955 C1.97840196,28.0332996 2.00090168,28.078299 2.02340139,28.1007987 C2.04590111,28.1343233 2.09090055,28.1455732 2.12442513,28.1455732 L22.0234014,28.1455732 C22.0684008,28.1455732 22.0659259,28.1232985 22.0884256,28.1007987 C22.1221752,28.078299 22.1696496,28.0332996 22.1696496,27.99955 L22.1696496,25.2750591 L5.11621273,25.2750591 C4.10462538,25.2750591 3.2712358,24.4448194 3.2712358,23.4303071 L3.2712358,15.759928 C3.2712358,14.7451907 4.10147542,13.9149511 5.11621273,13.9149511 L5.11643773,13.9149511 Z M7.96287715,16.557993 L9.65575599,16.557993 L9.65575599,19.8566768 C9.65575599,20.5494431 9.60085668,21.0768365 9.49083305,21.438632 C9.38013444,21.7993025 9.15783721,22.1061987 8.82371639,22.3577455 C8.48937057,22.6079424 8.06075093,22.7339408 7.54010744,22.7339408 C6.98818934,22.7339408 6.56114467,22.6504669 6.25897345,22.4850939 C5.95522725,22.319496 5.72145517,22.077849 5.55630723,21.758353 C5.3909343,21.440207 5.29328552,21.0457869 5.26403589,20.5764428 L6.87276578,20.3332208 C6.87524075,20.5989425 6.89684048,20.79694 6.93598999,20.9256384 C6.97558949,21.0556868 7.04286365,21.1589605 7.13848746,21.2395095 C7.20306165,21.2919339 7.2946355,21.3173585 7.41410901,21.3173585 C7.60310665,21.3173585 7.74215491,21.2395095 7.8310288,21.0840364 C7.9187777,20.9283384 7.96310215,20.6655417 7.96310215,20.2965463 L7.96310215,16.558218 L7.96287715,16.557993 Z M10.5001704,20.6230172 L12.1014754,20.5111936 C12.136125,20.799415 12.2069991,21.0201372 12.3138728,21.1699854 C12.4880206,21.4147823 12.7355175,21.5376308 13.0583885,21.5376308 C13.2986855,21.5376308 13.4843081,21.4755316 13.6136815,21.3495331 C13.7444049,21.2239847 13.8094291,21.0779615 13.8094291,20.9128136 C13.8094291,20.7559906 13.7484548,20.6144673 13.6249314,20.4900439 C13.5018579,20.3656204 13.2147615,20.2497469 12.7636421,20.1379233 C12.0236264,19.9541006 11.497583,19.7081786 11.1828119,19.4012825 C10.8651159,19.0959613 10.7062679,18.7055912 10.7062679,18.2306221 C10.7062679,17.919451 10.7874918,17.6256047 10.9503898,17.3484081 C11.1128378,17.0698616 11.3569597,16.8520643 11.6836556,16.6938913 C12.0103516,16.5354933 12.457646,16.4562943 13.0257639,16.4562943 C13.7232551,16.4562943 14.2546985,16.6005175 14.6205439,16.8903139 C14.9868394,17.1785353 15.2037366,17.6382045 15.2739358,18.2688716 L13.6877056,18.3734953 C13.6456311,18.0978738 13.5569822,17.8971763 13.4219839,17.7727528 C13.2858606,17.6467544 13.0991129,17.5846552 12.8617409,17.5846552 C12.6657684,17.5846552 12.5172702,17.6312296 12.4178215,17.7232535 C12.3188227,17.8152773 12.2695483,17.9284509 12.2695483,18.0611992 C12.2695483,18.157273 12.3102728,18.243672 12.3903718,18.321521 C12.4679958,18.402295 12.6558685,18.4756441 12.9533148,18.5449432 C13.6901806,18.721791 14.217799,18.9013387 14.53527,19.0820115 C14.854316,19.2631342 15.0869631,19.4865564 15.2318613,19.7552031 C15.3767595,20.0224997 15.4492086,20.322196 15.4492086,20.6542918 C15.4492086,21.043312 15.3524598,21.4021825 15.1594122,21.7318034 C14.9652396,22.0598493 14.695693,22.3100461 14.3476223,22.479694 C14.0009017,22.6493419 13.5635071,22.7341658 13.0352137,22.7341658 C12.1073253,22.7341658 11.4645084,22.5348183 11.1074378,22.1374733 C10.7501423,21.7403532 10.5483198,21.2354596 10.5008454,20.6232422 L10.5001704,20.6230172 Z M16.0967505,19.59928 C16.0967505,18.6081674 16.3446974,17.836202 16.8412662,17.2847339 C17.338285,16.7319159 18.0297013,16.4562943 18.9166402,16.4562943 C19.8251789,16.4562943 20.5253701,16.7278659 21.016764,17.2692091 C21.5086078,17.8121273 21.7540798,18.5728428 21.7540798,19.5500056 C21.7540798,20.2596468 21.6472061,20.8405895 21.4323338,21.2946338 C21.2176865,21.7486781 20.9065154,22.1021487 20.5008454,22.3550456 C20.0942755,22.6079424 19.5884818,22.7339408 18.9825644,22.7339408 C18.3676471,22.7339408 17.8578035,22.6252672 17.4539335,22.4072449 C17.0507386,22.1880976 16.7229177,21.843177 16.4724958,21.3709079 C16.2220739,20.9002137 16.0963005,20.3091461 16.0963005,19.59928 L16.0967505,19.59928 Z M17.7817544,19.603555 C17.7817544,20.2157723 17.8845781,20.6567668 18.0895506,20.9238385 C18.294973,21.1911351 18.5748695,21.3254584 18.9278901,21.3254584 C19.2901356,21.3254584 19.572507,21.1940601 19.7705046,20.9323883 C19.9700771,20.6695916 20.0693008,20.2002475 20.0693008,19.520081 C20.0693008,18.9488131 19.9651271,18.5318934 19.7579047,18.2688716 C19.5495573,18.0042749 19.2685358,17.8728766 18.9128153,17.8728766 C18.5723945,17.8728766 18.297673,18.0071999 18.0918005,18.2744966 C17.8845781,18.5417932 17.7817544,18.9857127 17.7817544,19.603555 Z M22.4859956,16.557993 L24.0607509,16.557993 L26.1077753,19.9115761 L26.1077753,16.557993 L27.7014304,16.557993 L27.7014304,22.6320171 L26.1077753,22.6320171 L24.0720008,19.2966588 L24.0720008,22.6320171 L22.4859956,22.6320171 L22.4859956,16.557993 L22.4859956,16.557993 Z M24.0094516,13.9149511 L28.0227264,13.9149511 C29.0374637,13.9149511 29.8677033,14.7483406 29.8677033,15.759928 L29.8677033,23.4303071 C29.8677033,24.4418945 29.0345388,25.2750591 28.0227264,25.2750591 L24.0094516,25.2750591 L24.0094516,28.5825177 C24.0094516,28.9762628 23.8521785,29.3247834 23.5932068,29.5837552 C23.33446,29.842277 22.9857144,30 22.5919693,30 L1.55248228,30 C1.1587372,30 0.81021656,29.842502 0.551244797,29.5837552 C0.292723028,29.3250084 0.135,28.9762628 0.135,28.5825177 L0.135,1.42873214 C0.135,1.03498706 0.292498031,0.686241422 0.551244797,0.427494656 C0.809991563,0.168747891 1.16998706,0.0112498594 1.55248228,0.0112498594 L15.8877281,0.0112498594 C15.9214777,-1.77635684e-15 15.9552272,-1.77635684e-15 15.9889768,-1.77635684e-15 C16.1464749,-1.77635684e-15 16.3039729,0.0674991563 16.4164715,0.168522893 L16.4389712,0.168522893 C16.4614709,0.179772753 16.4727208,0.191022612 16.4952205,0.213522331 L23.817979,7.62650467 C23.9417274,7.75025312 24.0317263,7.91900101 24.0317263,8.11024862 C24.0317263,8.16649792 24.0204764,8.21149736 24.0092266,8.26774665 L24.0092266,13.9147261 L24.0094516,13.9149511 Z M16.6191939,6.82821465 L16.6191939,2.18247272 L21.8499286,7.48048149 L17.2714608,7.48048149 C17.091688,7.48048149 16.93419,7.40173248 16.8102166,7.28945888 C16.697943,7.17696029 16.6191939,7.0082124 16.6191939,6.82821465 L16.6191939,6.82821465 Z" id="Shape" fill="#7485E1"></path>
    </g>
</svg>