<?xml version="1.0" encoding="UTF-8"?>
<svg width="30px" height="30px" viewBox="0 0 30 30" version="1.1" xmlns="http://www.w3.org/2000/svg" xmlns:xlink="http://www.w3.org/1999/xlink">
    <title>skill-express</title>
    <g id="skill-express" stroke="none" stroke-width="1" fill="none" fill-rule="evenodd">
        <path d="M15,0 C23.2842712,0 30,6.71572875 30,15 C30,23.2842712 23.2842712,30 15,30 C6.71572875,30 0,23.2842712 0,15 C0,6.71572875 6.71572875,0 15,0 Z M10.871586,8.74552308 C7.74130204,8.45079149 5.05700326,10.9116279 5.05700326,14.031269 L5.05700326,16.1481086 C5.05700326,18.4550226 6.45107237,20.5423215 8.5659034,21.3043033 C11.2727249,22.2793743 14.2283812,20.9071131 15.2814983,18.2990129 L15.3104049,18.2257981 L15.61347,17.4576832 L14.5456546,17.4576832 C14.0203729,17.4576832 13.5364234,17.7255536 13.240281,18.1627283 L13.1996918,18.2235617 C12.3285619,19.5109368 10.6877729,20.0745947 9.18857454,19.5269662 L9.14823887,19.5119243 C7.87523774,19.0274002 7.01163312,17.7662634 6.94392505,16.342452 L6.94221498,16.3024104 L15.6664388,16.3024312 L15.6664388,14.1702899 C15.6664388,11.3840832 13.5942322,9.00179798 10.871586,8.74552308 Z M15.5298864,9.10123798 L14.0710598,9.10123798 L14.7608622,10.0042235 L18.6629316,15.1122801 L14.671689,20.3373555 L13.9819279,21.2403306 L15.4667774,21.2401466 C16.0308105,21.232177 16.5604974,20.9657779 16.9036634,20.5167006 L19.8473453,16.6631433 L22.7910353,20.5166254 C23.1395382,20.9726868 23.6802878,21.2403306 24.2540349,21.2403306 L25.7128282,21.2403306 L25.0230671,20.3373555 L21.031759,15.1122801 L24.933894,10.0042235 L25.6236963,9.10123798 L24.1388201,9.10142194 C23.5749285,9.10938753 23.0453575,9.37565263 22.7018061,9.82453068 L19.8470033,13.5618078 L16.9925109,9.8249489 C16.6447235,9.36910914 16.1035146,9.10123798 15.5298864,9.10123798 Z M10.361721,10.6048549 L10.4182072,10.6053149 C12.2786995,10.6356368 13.7838077,12.1610818 13.7838077,14.031269 L13.7838077,14.4189577 L6.93962541,14.4189577 L6.93962541,14.031269 C6.93962541,12.142191 8.47530236,10.6048549 10.361721,10.6048549 Z" id="Combined-Shape" fill="#7485E1"></path>
    </g>
</svg>