<?xml version="1.0" encoding="UTF-8"?>
<svg width="30px" height="30px" viewBox="0 0 30 30" version="1.1" xmlns="http://www.w3.org/2000/svg" xmlns:xlink="http://www.w3.org/1999/xlink">
    <title>skill-netlify</title>
    <g id="skill-netlify" stroke="none" stroke-width="1" fill="none" fill-rule="evenodd">
        <path d="M8.782,23.328 L8.514,23.328 L7.18,21.994 L7.18,21.726 L9.218,19.688 L10.63,19.688 L10.818,19.876 L10.818,21.288 L8.78,23.326 L8.782,23.328 Z M7.18,8.244 L7.18,7.976 L8.514,6.642 L8.782,6.642 L10.82,8.68 L10.82,10.092 L10.632,10.28 L9.22,10.28 L7.182,8.242 L7.18,8.244 Z M18.92,19.028 L16.98,19.028 L16.818,18.866 L16.818,14.324 C16.818,13.516 16.5,12.89 15.526,12.868 C15.024,12.854 14.45,12.868 13.838,12.892 L13.746,12.986 L13.746,18.864 L13.584,19.026 L11.644,19.026 L11.482,18.864 L11.482,11.106 L11.644,10.944 L16.01,10.944 C17.706,10.944 19.082,12.32 19.082,14.016 L19.082,18.866 L18.92,19.028 Z M9.058,16.12 L1.298,16.12 L1.136,15.958 L1.136,14.014 L1.298,13.852 L9.058,13.852 L9.22,14.014 L9.22,15.958 L9.058,16.12 Z M29.268,16.12 L21.508,16.12 L21.346,15.958 L21.346,14.014 L21.508,13.852 L29.268,13.852 L29.43,14.014 L29.43,15.958 L29.268,16.12 Z M14.164,8.52 L14.164,2.7 L14.326,2.538 L16.27,2.538 L16.432,2.7 L16.432,8.52 L16.27,8.682 L14.326,8.682 L14.164,8.52 Z M14.164,27.272 L14.164,21.452 L14.326,21.29 L16.27,21.29 L16.432,21.452 L16.432,27.272 L16.27,27.434 L14.326,27.434 L14.164,27.272 Z" id="Shape" fill="#7485E1" fill-rule="nonzero"></path>
    </g>
</svg>