<?xml version="1.0" encoding="UTF-8"?>
<svg width="30px" height="30px" viewBox="0 0 30 30" version="1.1" xmlns="http://www.w3.org/2000/svg" xmlns:xlink="http://www.w3.org/1999/xlink">
    <title>mongoose</title>
    <g id="mongoose" stroke="none" stroke-width="1" fill="none" fill-rule="evenodd">
        <path d="M13.8427761,17.4423137 L13.8427761,20.7052465 L13.7623783,20.7876077 L11.4263109,20.7876077 L11.4263109,17.4423137 L12.6295092,19.3108957 L13.8427761,17.4423137 Z M18.7649535,9.29216609 L18.8150257,9.29797526 C18.9561101,9.3145962 19.0973518,9.32991597 19.2386173,9.34497433 L19.4505168,9.36749579 C19.6977147,9.39384535 19.9447813,9.4209865 20.1910013,9.45449172 C20.5696815,9.50604298 20.9454419,9.5794431 21.3220077,9.64564418 L21.5185678,9.68026237 C21.7478848,9.7207827 21.9770935,9.76216591 22.2051754,9.80860455 C22.4744602,9.86342811 22.7414796,9.92897472 23.0095059,9.99024218 C23.3624105,10.0708917 23.7162716,10.1477655 24.0677162,10.2341541 C24.2688198,10.2835574 24.4688942,10.3374133 24.6687448,10.3920522 L24.9684536,10.4741393 L25.1989263,10.536991 C25.4294038,10.5999371 25.6597892,10.663492 25.8891269,10.7305867 C26.1842041,10.8168187 26.4786051,10.9054373 26.7716228,10.9984934 L26.9126394,11.0436382 L27.0687184,11.0937544 L27.1935591,11.1340296 C27.4223347,11.2082087 27.6503681,11.2847375 27.874404,11.3714031 C28.4044657,11.5763495 28.9283352,11.797305 29.4541178,12.0131256 C29.6151651,12.0549606 29.7715809,12.106814 29.8928572,12.2275365 C29.9930902,12.3273668 30.0170031,12.4480893 29.9892641,12.5869857 C29.9288256,12.888556 29.7954131,13.1579255 29.6590593,13.4264085 L29.6126498,13.5177787 C29.5737883,13.5944866 29.5353346,13.6714116 29.4989182,13.7492826 L29.4773259,13.7961245 C29.2912078,14.2059167 28.954866,14.3778885 28.5702453,14.5113982 C28.5566178,14.5161149 28.5427384,14.5203786 28.5287906,14.5245177 L28.5008585,14.5327272 C28.4636396,14.5437113 28.4268064,14.555367 28.3938433,14.5739242 L27.5707349,14.7742391 L27.5218498,14.7855712 C27.4169292,14.809565 27.3357008,14.8263923 27.2569468,14.8512136 C27.2381689,14.8571037 27.2284527,14.8141108 27.2198944,14.8421015 L23.5802447,15.5764552 C23.4923391,15.6288967 23.2591417,15.682234 22.9860321,15.7397443 L22.7043519,15.7985921 L22.6553381,15.8089587 L22.6063453,15.8194305 C22.5558075,15.8302988 22.5054875,15.8413408 22.4559562,15.8525744 L22.4007391,15.8652606 C22.0814265,15.9396254 21.8049173,16.0224535 21.7305413,16.1186999 L21.7041203,16.1530633 C21.5458516,16.3609278 21.5628537,16.3987556 21.9283391,17.1553131 L19.4341443,17.2359627 C17.2580167,17.4113074 16.7883163,18.6601165 16.7883163,18.6601165 L16.3599475,18.9425912 L16.3599475,14.7464498 L13.7720643,14.7464498 L12.5944403,16.9130122 L11.4202899,14.7464498 L8.90917986,14.7464498 L8.90917986,16.917543 C8.78208667,16.8172347 8.71232579,16.7198342 8.64782902,16.6258476 L8.62815941,16.5971326 C8.59731425,16.5521493 8.56645549,16.5079719 8.52974449,16.4646572 C8.47250447,16.3870282 8.3607933,16.3130743 8.29670663,16.242141 C7.94652055,15.8147791 7.50304885,15.4659523 6.99971929,15.2288366 L6.94943593,15.2029566 C6.9410417,15.1986867 6.93261204,15.1944859 6.92410407,15.1904249 C6.57009192,14.9635792 6.17620809,14.7957356 5.75705207,14.7016445 C5.60129076,14.657846 5.443264,14.6206929 5.28231735,14.5930042 L5.19389689,14.5778675 C4.64773559,14.4850971 4.08529448,14.4041159 3.5289705,14.401298 C2.91181536,14.3979753 2.28494402,14.5109954 1.68027395,14.5961255 C1.25245893,14.6564364 0.838135842,14.7696579 0.433679984,14.91379 L0.347845127,14.9250165 C0.238248363,14.9398173 0.13066532,14.9696204 0.0221257592,14.9924258 C0.0182087843,14.9825198 0.0100029785,14.9726458 0.00476259288,14.9627317 L1.77635684e-15,14.9646314 L0.00385340934,14.9609477 C0.000385876428,14.9538685 -0.00134967251,14.9467667 0.00128374712,14.9396159 L0.0443158922,14.9227615 C0.593685201,14.4096018 6.17438624,9.36339687 12.5069901,10.0256402 L12.5223994,10.0195922 C12.5293467,10.7357217 12.7222109,11.4048308 13.0592071,12.0310477 C13.3767709,12.621219 13.8040321,13.1249009 14.3181351,13.5558876 C14.7787234,13.9419179 15.2821537,14.2597837 15.8451397,14.4678515 C16.1634587,14.5855535 16.5004045,14.6530131 16.8290438,14.7430264 L16.840673,14.7031044 L16.7548752,14.6708404 L16.5831118,14.6066031 C16.4972455,14.5744151 16.4114736,14.5419564 16.326117,14.5084783 C15.7267329,14.2733764 15.1841358,13.9436295 14.6951037,13.5252287 C14.0564521,12.9790069 13.5569989,12.3258061 13.2143139,11.5589812 L13.1962916,11.5183421 C12.975547,11.0166281 12.8128336,10.4962611 12.8633224,9.93637515 L12.8653241,9.91540712 C12.8987295,9.58423848 12.9994571,9.45919622 13.3381074,9.36362256 C13.6276986,9.28189588 13.9168905,9.30149687 14.206546,9.33753271 L14.2644835,9.34493386 L14.3031161,9.35003691 L14.3610777,9.35783311 C15.058983,9.45227663 15.7310121,9.64811099 16.3915629,9.88391772 C16.7080695,9.99693781 17.0151116,10.1362873 17.330712,10.2571106 C17.0895186,10.0628368 16.826879,9.90189018 16.5451595,9.77346512 C16.2651012,9.64579521 15.9811666,9.52653259 15.6942113,9.37907787 C15.7601686,9.36762943 15.8260303,9.35486784 15.8918728,9.34181041 L16.0117962,9.31792774 L16.0776554,9.30503101 C16.2203821,9.27748377 16.3633556,9.25303907 16.5073519,9.24204416 C17.2608063,9.18447253 18.0138272,9.20644276 18.7649535,9.29216609 L18.7649535,9.29216609 Z M24.1979536,14.2989506 C24.139153,14.3121405 24.0808054,14.3281496 24.0215013,14.3383189 C23.7002122,14.3927397 23.3729825,14.4235999 23.0585903,14.5046522 C22.6122994,14.6198874 22.1731572,14.7649256 21.7353743,14.910266 C21.3843827,15.0267094 21.0610294,15.2017521 20.7641566,15.4240165 L20.7497411,15.4349438 C20.6043637,15.546598 20.4962183,15.675973 20.5388212,15.8798726 C20.5499974,15.9338403 20.5626335,15.987506 20.5759241,16.0409703 C20.6405142,16.2995321 20.7504633,16.5371008 20.8993276,16.7567474 C20.8811035,16.5510458 20.8533141,16.3487675 20.8303074,16.1459355 C20.7950838,15.8339485 20.8950161,15.5819434 21.1777195,15.4323366 L21.1878939,15.4270371 C21.2261893,15.407386 21.2644335,15.38752 21.3026645,15.3675562 L21.4947176,15.2670304 C21.7254757,15.1467306 21.9580635,15.0299944 22.2007955,14.9424352 C22.7605596,14.7405596 23.3361817,14.5827342 23.9054607,14.4072888 C23.9547968,14.39206 24.0045483,14.3780017 24.0544068,14.3642644 L24.154175,14.3369659 L24.2039948,14.3231656 L24.1979536,14.2989506 Z M13.2477417,10.2912935 C13.2333436,10.3515541 13.22841,10.416849 13.2340987,10.4785695 C13.2594716,10.7551038 13.3780798,10.9995695 13.5124453,11.2358796 C13.8386681,11.8093874 14.2741353,12.2909687 14.7733367,12.7179279 C15.1370147,13.0289471 15.5266194,13.3027125 15.968027,13.5533704 C15.7141472,13.2155687 15.4478326,12.9227737 15.2432889,12.5857775 L15.2648357,12.5602032 L15.7844764,12.7303123 L14.9935875,11.8037993 C15.0018437,11.795543 15.0101,11.7873371 15.0185576,11.7791312 C15.3204144,11.8590759 15.5958914,11.9969151 15.8497209,12.1820264 C15.8591854,12.1729647 15.8687002,12.1639029 15.878064,12.1547405 C15.7237627,11.9250756 15.5694613,11.6953604 15.4150593,11.4656955 L15.4418417,11.4328215 L16.2473301,11.7997719 L16.2381416,11.7865904 C16.223901,11.7657679 16.2145317,11.7504693 16.2025752,11.7375479 C15.8476065,11.3541354 15.4349951,11.0459354 14.9790887,10.7926597 C14.4974569,10.5250865 13.9828505,10.34068 13.4592831,10.177921 C13.3639837,10.1483193 13.2711512,10.193477 13.2477417,10.2912935 Z M20.378674,11.0050335 L20.2600938,11.0053721 C20.2294431,11.0054377 20.1988177,11.0054093 20.1682462,11.0051072 C20.0893587,11.0043017 20.0102698,11.0157799 19.9312313,11.0217204 C20.1441823,11.1004915 20.3573988,11.1566083 20.5685578,11.2184024 L20.6107614,11.2308453 C20.674546,11.249875 20.7604816,11.2786712 20.7861565,11.3286618 C20.9587324,11.6661615 21.2520309,11.8390898 21.6010087,11.9117347 C21.8771906,11.9691761 22.1635417,12.0059265 22.4450599,12.0043156 C22.8338213,12.0020476 23.2226918,11.9762464 23.6109295,11.9476573 L23.8164039,11.9323754 L24.2276057,11.7306509 C23.983291,11.6714978 23.7389259,11.6132509 23.4940071,11.5570178 L23.2160436,11.4931089 C22.9380628,11.4292472 22.6599617,11.3658527 22.3811242,11.3058564 C22.1851892,11.2637193 21.9865859,11.2328087 21.7890399,11.1984748 C21.4423779,11.1383149 21.0967226,11.0702511 20.7482986,11.0235328 C20.6265508,11.0072011 20.5027089,11.0049943 20.378674,11.0050335 L20.378674,11.0050335 Z" id="Shape" fill="#7485E1" fill-rule="nonzero"></path>
    </g>
</svg>