<?xml version="1.0" encoding="UTF-8"?>
<svg width="30px" height="30px" viewBox="0 0 30 30" version="1.1" xmlns="http://www.w3.org/2000/svg" xmlns:xlink="http://www.w3.org/1999/xlink">
    <title>skill-heroku</title>
    <g id="skill-heroku" stroke="none" stroke-width="1" fill="none" fill-rule="evenodd">
        <path d="M25.725,0 C27.225,0 28.425,1.2 28.425,2.7 L28.425,27.3 C28.425,28.8 27.225,30 25.725,30 L4.2,30 C2.7,30 1.5,28.8 1.5,27.3 L1.5,2.7 C1.5,1.2 2.7,0 4.2,0 L25.725,0 Z M25.725,1.5 L4.2,1.5 C3.525,1.5 3,2.025 3,2.7 L3,27.3 C3,27.975 3.525,28.5 4.2,28.5 L25.725,28.5 C26.4,28.5 26.925,27.975 26.925,27.3 L26.925,2.7 C26.925,2.025 26.4,1.5 25.725,1.5 Z M8.25,19.5 L11.625,22.5 L8.25,25.5 L8.25,19.5 Z M11.175,4.5 L11.175,13.05 C12.675,12.525 14.775,12 16.8,12 C18.675,12 19.8,12.75 20.4,13.35 C21.675,14.625 21.675,16.275 21.6,16.5 L21.6,25.5 L18.6,25.5 L18.6,16.5 C18.6,15.75 18.225,14.925 16.725,14.925 C13.725,14.925 10.275,16.5 10.275,16.5 L8.175,17.475 L8.175,4.5 L11.175,4.5 Z M21.675,4.5 C21.45,6.225 20.775,7.8 19.425,9.375 L16.425,9.375 C17.625,7.8 18.375,6.225 18.675,4.5 L21.675,4.5 Z" id="Shape" fill="#7485E1" fill-rule="nonzero"></path>
    </g>
</svg>