<?xml version="1.0" encoding="UTF-8"?>
<svg width="30px" height="30px" viewBox="0 0 30 30" version="1.1" xmlns="http://www.w3.org/2000/svg" xmlns:xlink="http://www.w3.org/1999/xlink">
    <title>postman</title>
    <g id="postman" stroke="none" stroke-width="1" fill="none" fill-rule="evenodd">
        <path d="M5.83082565,3.12939119 C12.3877362,-1.93481859 21.8082347,-0.724416135 26.8714777,5.83225274 C31.9339956,12.3872298 30.7245599,21.8048279 24.1712748,26.8690377 C17.6162978,31.9342142 8.19507421,30.7257453 3.12989765,24.1700432 C-1.93431213,17.6140994 -0.725118143,8.19360097 5.83082565,3.12939119 Z M7.04702875,22.1069451 L5.9219442,23.2329965 L8.34274911,23.389614 L7.25706065,22.3039256 L7.04702875,22.1069451 Z M14.2818904,16.8044253 L11.9306933,17.1698663 L7.38491666,21.7823504 L8.8597321,23.2692505 C8.8881985,23.2947857 8.93132694,23.2947857 8.95979333,23.2692505 C8.97870601,23.2430633 8.97870601,23.2077029 8.95979333,23.1815157 L8.70964027,22.0938937 C8.66896723,21.9329777 8.74758199,21.7657316 8.89743633,21.6943738 C11.1358335,20.6106123 13.234216,19.2588173 15.146429,17.6687222 L14.2818904,16.8044253 Z M20.3889442,11.3974261 L14.6461229,16.4319752 L15.5590003,17.3438858 L16.3341605,16.6041406 C18.2926069,14.7123498 20.0283106,12.8295587 20.3889442,11.3974261 Z M13.3472605,15.8190397 L12.6100945,16.5562058 L13.9116155,16.3966879 L13.6534865,16.1322749 L13.6346344,16.1293746 L13.6302839,16.1090723 L13.3472605,15.8190397 Z M19.6661027,9.77790311 C19.4810416,9.77790311 19.3034952,9.8511092 19.1723223,9.98165156 L13.6406768,15.4632665 L14.2731894,16.0957791 L20.1342636,10.9945902 C20.2796929,10.868148 20.3659443,10.6868887 20.3723319,10.4942841 C20.3784899,10.3008135 20.3010901,10.1140501 20.1598831,9.98165156 C20.0287497,9.8510206 19.8511984,9.77766201 19.6661027,9.77790311 Z M11.9468868,14.4077898 L10.53467,15.8200065 L12.8621811,15.3221173 L11.9468868,14.4077898 Z M18.7077869,9.06200672 C18.4432174,9.05638585 18.1828331,9.12866814 17.9590195,9.26986338 C16.8723643,9.75687634 15.1244349,11.2430514 12.2656809,14.0882706 L13.3475022,15.1700919 L18.8598123,9.68243466 C19.0352545,9.50746139 19.2625388,9.39386165 19.5077933,9.35856499 C19.2801782,9.17589064 18.9994802,9.07192213 18.7077869,9.06200672 Z M21.7345181,5.59442606 C20.8443599,5.59925993 20.0474955,6.13461166 19.713233,6.95395357 C19.3789705,7.77257041 19.5602408,8.71614292 20.185261,9.34454675 C20.8206365,9.98349946 21.7829908,10.1670838 22.6089662,9.80690696 L21.1346341,8.3325749 L21.0933023,8.28848074 C21.070892,8.25552007 21.0585143,8.21623723 21.0585006,8.17547394 C21.0598441,8.14216656 21.0694478,8.10999409 21.0861154,8.08170941 L21.1346341,8.01885637 L23.0846195,6.05702795 C22.6970408,5.75978646 22.2229455,5.59734134 21.7345181,5.59442606 Z M23.4551361,6.42343572 L21.6731279,8.10562444 L21.609079,8.16967329 L21.8418301,8.4024244 L23.0316886,9.57391415 C23.1251562,9.50817992 23.213839,9.43589289 23.2970684,9.35759822 C23.7121595,8.9435365 23.9458407,8.381589 23.9467557,7.79528962 C23.9480443,7.29482572 23.7742148,6.80967652 23.4551361,6.42343572 Z M23.3223278,7.42899692 L23.3669179,7.43734113 C23.4109079,7.4512313 23.4482464,7.48082685 23.471813,7.52048379 L23.5161263,7.63448812 C23.5994737,7.90731188 23.5430646,8.20719566 23.3594254,8.43239443 C23.318779,8.47794102 23.2562366,8.4972063 23.1970072,8.48242504 C23.1647891,8.49473419 23.129164,8.49473419 23.0969459,8.48242504 C23.0667342,8.45052146 23.0507824,8.40798335 23.0498156,8.3635117 C23.0479154,8.31926187 23.0650745,8.27632017 23.0969459,8.24556513 C23.2016768,8.11171409 23.2358349,7.93810398 23.1936092,7.77737358 L23.1590612,7.68290201 C23.1371904,7.64127604 23.1328402,7.59264184 23.1469765,7.54779519 C23.1612324,7.50332412 23.1925153,7.466306 23.2339863,7.44483364 C23.2619253,7.43240142 23.2922536,7.42707284 23.3223278,7.42899692 Z" id="Shape" fill="#7485E1" fill-rule="nonzero"></path>
    </g>
</svg>