<?xml version="1.0" encoding="UTF-8"?>
<svg width="30px" height="30px" viewBox="0 0 30 30" version="1.1" xmlns="http://www.w3.org/2000/svg" xmlns:xlink="http://www.w3.org/1999/xlink">
    <title>git</title>
    <g id="git" stroke="none" stroke-width="1" fill="none" fill-rule="evenodd">
        <path d="M29.4347646,13.6636775 L16.3363225,0.565888351 C15.5821312,-0.18862945 14.3587741,-0.18862945 13.6039298,0.565888351 L10.8842703,3.28620091 L14.3342874,6.73621805 C15.1361462,6.46523156 16.0555413,6.64708635 16.6944818,7.28635327 C17.3373401,7.92953807 17.5175624,8.85676895 17.2397197,9.66156617 L20.5653442,12.9868642 C21.3701414,12.7093479 22.2980253,12.8889173 22.9405571,13.5324286 C23.8384039,14.4302754 23.8384039,15.8851137 22.9405571,16.7836135 C22.0420573,17.6817868 20.587219,17.6817868 19.6883927,16.7836135 C19.013212,16.1077797 18.8460492,15.1152509 19.1885369,14.283355 L16.0868844,11.1820289 L16.0868844,19.3432931 C16.3056325,19.4516877 16.5123005,19.5959961 16.6944818,19.7781774 C17.5923286,20.6760242 17.5923286,22.1308625 16.6944818,23.0296888 C15.796635,23.9272091 14.3408172,23.9272091 13.4436234,23.0296888 C12.5457766,22.130536 12.5457766,20.6756977 13.4436234,19.7781774 C13.6656364,19.5564909 13.9225838,19.3886752 14.1968352,19.2763627 L14.1968352,11.0390264 C13.9225838,10.9267139 13.6662894,10.7605307 13.4436234,10.5372117 C12.7635452,9.85746002 12.5999739,8.85905438 12.9486649,8.02389361 L9.54762125,4.62219695 L0.565888351,13.6029504 C-0.18862945,14.3581212 -0.18862945,15.5814782 0.565888351,16.335996 L13.6649834,29.4341116 C14.4191747,30.1886295 15.6422053,30.1886295 16.3973761,29.4341116 L29.4347646,16.3967231 C30.1892824,15.6422053 30.1892824,14.4181953 29.4347646,13.6636775 Z" id="Path" fill="#7485E1" fill-rule="nonzero"></path>
    </g>
</svg>