<?xml version="1.0" encoding="UTF-8"?>
<svg width="30px" height="30px" viewBox="0 0 30 30" version="1.1" xmlns="http://www.w3.org/2000/svg" xmlns:xlink="http://www.w3.org/1999/xlink">
    <title>skill-ejs</title>
    <g id="skill-ejs" stroke="none" stroke-width="1" fill="none" fill-rule="evenodd">
        <path d="M0,16.7905296 L0,13.2077372 L12.7069134,6.565 L12.7069134,9.85636913 L3.32136859,14.9337774 L12.7090562,20.114041 L12.7090562,23.4354096 L0,16.7905296 Z M29.0705464,17.6048006 C29.6744237,18.1760995 30.0113322,18.9742657 29.9994582,19.8054752 C30.0154158,20.6366347 29.6782346,21.4355907 29.0716178,22.0040069 L29.0705464,22.0082925 C27.745423,23.2059566 25.727379,23.2013196 24.4077735,21.9975784 C23.8158532,21.4200955 23.4820748,20.6281455 23.4820748,19.8011895 C23.4820748,18.9742335 23.8158532,18.1822836 24.4077735,17.6048006 C25.7274035,16.3970394 27.7509164,16.3970394 29.0705464,17.6048006 Z M26.0148873,7.27534431 L29.8001761,7.27641572 L18.7121621,22.7443507 L14.9054451,22.7443507 L26.0148873,7.27534431 Z M26.7396957,18.6821706 C26.4900476,18.6821706 26.2542291,18.7954845 26.0982534,18.9896277 L26.0877431,19.0029897 C25.9055906,19.2315099 25.8113267,19.5177224 25.8220337,19.8097608 C25.8085262,20.0933597 25.8987957,20.3721666 26.0759576,20.5940324 C26.2359611,20.7885245 26.4766806,20.8984096 26.7284459,20.8918841 C26.9829412,20.8968208 27.226275,20.7875368 27.3916482,20.5940324 C27.5756695,20.3753119 27.6705392,20.0952932 27.6573577,19.8097608 C27.6677969,19.5250233 27.5784483,19.2458242 27.4051446,19.020236 L27.3916482,19.0029897 C27.2358741,18.8006937 26.9950175,18.6821706 26.7396957,18.6821706 Z M20.3642751,8.55996397 C20.9702526,9.13373042 21.306984,9.93589783 21.2921155,10.7702812 C21.3065489,11.5995874 20.9694938,12.3962985 20.3642751,12.9634559 C19.0391516,14.16112 17.0211077,14.1564829 15.7015021,12.9527418 C15.1095818,12.3752588 14.7758035,11.5833089 14.7758035,10.7563529 C14.7758035,9.92939686 15.1095818,9.13744693 15.7015021,8.55996397 C17.0211322,7.35220277 19.0446451,7.35220277 20.3642751,8.55996397 Z M18.0334243,9.64123097 C17.7840576,9.64123097 17.548443,9.75414476 17.39224,9.94773075 L17.3814718,9.96136723 C17.1993192,10.1898875 17.1050554,10.4761 17.1157623,10.7681384 C17.1022549,11.0517373 17.1925243,11.3305442 17.3696863,11.5524099 C17.5296897,11.7469021 17.7704093,11.8567872 18.0221745,11.8502617 C18.2766699,11.8551984 18.5200037,11.7459144 18.6853768,11.5524099 C18.8693982,11.3336894 18.9642679,11.0536708 18.9510863,10.7681384 C18.9615256,10.4834009 18.872177,10.2042018 18.6988732,9.97861362 L18.6853768,9.96136723 C18.529357,9.75945764 18.2885903,9.64123097 18.0334243,9.64123097 Z" id="Shape" fill="#7485E1" fill-rule="nonzero"></path>
    </g>
</svg>