<?xml version="1.0" encoding="UTF-8"?>
<svg width="30px" height="30px" viewBox="0 0 30 30" version="1.1" xmlns="http://www.w3.org/2000/svg" xmlns:xlink="http://www.w3.org/1999/xlink">
    <title>skill-cloudinary</title>
    <g id="skill-cloudinary" stroke="none" stroke-width="1" fill="none" fill-rule="evenodd">
        <path d="M8.79521865,13.9929944 C8.81717075,13.9929944 8.83820643,14.0017955 8.85361805,14.0174281 L11.6145429,16.780838 C11.637315,16.8042548 11.6440193,16.8389528 11.6316097,16.8691674 C11.6192001,16.899382 11.5900432,16.9193513 11.557386,16.9200025 L10.8516231,16.9200025 C10.8059125,16.9199827 10.7684747,16.9563194 10.7671303,17.0020102 L10.7671303,23.2147123 C10.7681323,23.607951 10.9244387,23.9848727 11.2020195,24.2634164 L11.6145429,24.6759398 C11.637315,24.6993567 11.6440193,24.7340547 11.6316097,24.7642693 C11.6192001,24.7944838 11.5900432,24.8144531 11.557386,24.8151044 L8.3019301,24.8151044 C7.47844675,24.8151044 6.81088159,24.1475392 6.81088159,23.3240559 L6.81088159,17.0020102 C6.81088159,16.9567186 6.77416551,16.9200025 6.72887392,16.9200025 L6.03305128,16.9200025 C5.99994279,16.920341 5.96987874,16.9007366 5.95683598,16.8703035 C5.94379323,16.8398704 5.95033079,16.8045797 5.97340934,16.780838 L8.73681925,14.0174281 C8.75223086,14.0017955 8.77326655,13.9929944 8.79521865,13.9929944 Z M14.9010623,15.5933865 C14.9230144,15.5933865 14.9440501,15.6021876 14.9594617,15.6178201 L17.7228716,18.3712897 C17.7459502,18.3950314 17.7524877,18.4303222 17.739445,18.4607553 C17.7264022,18.4911884 17.6963382,18.5107927 17.6632297,18.5104542 L16.9574667,18.5104542 C16.9117759,18.5117987 16.8754393,18.5492364 16.875459,18.594947 L16.875459,23.2147123 C16.8758003,23.6075964 17.0311932,23.9844687 17.3078631,24.2634164 L17.7228716,24.6759398 C17.7459502,24.6996815 17.7524877,24.7349723 17.739445,24.7654054 C17.7264022,24.7958385 17.6963382,24.8154428 17.6632297,24.8151129 L14.415229,24.8151129 C13.5917456,24.8151129 12.9241805,24.1475392 12.9241805,23.3240559 L12.9241805,18.5999172 C12.9242003,18.5542066 12.8878636,18.5167688 12.8421728,18.5154244 L12.1388949,18.5154244 C12.1062377,18.5147732 12.0770808,18.4948039 12.0646713,18.4645893 C12.0522617,18.4343747 12.058966,18.3996767 12.0817381,18.3762599 L14.8426629,15.6178201 C14.8580745,15.6021876 14.8791102,15.5933865 14.9010623,15.5933865 Z M21.0081485,17.1765836 C21.0296971,17.1765836 21.0503232,17.1853286 21.0653053,17.2008166 L23.8287152,19.9617415 C23.8532718,19.9849123 23.861118,20.0207651 23.8484842,20.0520749 C23.8358505,20.0833846 23.805319,20.1037517 23.7715584,20.1033911 L23.0633103,20.1033911 C23.0180188,20.1033911 22.9813027,20.1401072 22.9813027,20.1853987 L22.9813027,23.2147123 C22.9823047,23.607951 23.1386111,23.9848727 23.4161918,24.2634164 L23.8287152,24.6759398 C23.8514874,24.6993567 23.8581916,24.7340547 23.8457821,24.7642693 C23.8333725,24.7944838 23.8042156,24.8144531 23.7715584,24.8151044 L20.5136174,24.8151044 C19.690134,24.8151044 19.0225689,24.1475392 19.0225689,23.3240559 L19.0225689,20.1853987 C19.0225689,20.1401072 18.9858528,20.1033911 18.9405612,20.1033911 L18.2447386,20.1033911 C18.210978,20.1037517 18.1804465,20.0833846 18.1678128,20.0520749 C18.155179,20.0207651 18.1630252,19.9849123 18.1875817,19.9617415 L20.9509916,17.2008166 C20.9659737,17.1853286 20.9865998,17.1765836 21.0081485,17.1765836 Z M14.845148,5.18015772 C19.1858293,5.21176181 23.0142914,8.03046452 24.3331867,12.1660428 C27.5568244,12.5867596 29.9756155,15.3216909 29.999171,18.5725813 C29.999171,21.2887746 28.2794951,23.5402579 25.511115,24.4473124 L25.3868609,24.4870737 L25.3868609,22.4840985 C27.109022,21.7584549 28.1204499,20.3245633 28.1204499,18.5725813 C28.1115311,16.072584 26.1095159,14.0363746 23.6100281,13.985122 L22.8645039,13.985122 L22.6855781,13.2743889 C21.8074486,9.64964689 18.5746484,7.08799857 14.845148,7.06168677 C11.821207,7.04717023 9.05586812,8.74020537 7.68899696,11.4220881 L7.35262921,12.1113711 L6.83076224,12.1660428 C4.47381954,12.4181813 2.53852674,14.1420796 2.01664654,16.4543066 C1.49476635,18.7665336 2.50197705,21.1545685 4.52212213,22.3946356 L4.52212213,24.5069543 L4.50969672,24.5069543 L4.32331566,24.4224616 C1.37551042,23.0672895 -0.351179735,19.9552104 0.0590793933,16.7368669 C0.469338521,13.5185235 2.92154793,10.9391506 6.11505895,10.3668443 C7.8403984,7.15504208 11.199324,5.15957449 14.845148,5.18015772 Z" id="Shape" fill="#7485E1" fill-rule="nonzero"></path>
    </g>
</svg>