<?xml version="1.0" encoding="UTF-8"?>
<svg width="30px" height="30px" viewBox="0 0 30 30" version="1.1" xmlns="http://www.w3.org/2000/svg" xmlns:xlink="http://www.w3.org/1999/xlink">
    <title>python</title>
    <g id="python" stroke="none" stroke-width="1" fill="none" fill-rule="evenodd">
        <path d="M14.8244731,0.000245381895 C13.6009584,0.00593045669 12.4325293,0.110278665 11.404432,0.292200112 C8.37578621,0.827262376 7.82590154,1.94719357 7.82590127,4.01253736 L7.82590127,6.74022863 L14.9829628,6.74022863 L14.9829628,7.64945905 L7.82590127,7.64945905 L5.13991782,7.64945905 C3.05987649,7.64945905 1.23853285,8.89968378 0.668839833,11.2780392 C0.0117061461,14.0041865 -0.0174413055,15.7053468 0.668839833,18.5518826 C1.17758934,20.6707336 2.39255205,22.1804627 4.47259274,22.1804627 L6.93335398,22.1804627 L6.93335398,18.9105698 C6.93335398,16.5482652 8.97727567,14.464517 11.404432,14.4645164 L18.5531519,14.4645164 C20.5431023,14.4645164 22.1316827,12.8260561 22.1316827,10.8275947 L22.1316827,4.01253736 C22.1316827,2.07293336 20.4954069,0.615912195 18.5531519,0.292200112 C17.3236757,0.0875380946 16.0479877,-0.00543977505 14.8244731,0.000245381895 Z M10.9539876,2.19407662 C11.6932629,2.19407662 12.2969793,2.80765416 12.2969793,3.56209293 C12.2969793,4.31385759 11.6932629,4.92176778 10.9539876,4.92176778 C10.212062,4.92176778 9.61099586,4.31385732 9.61099586,3.56209293 C9.61099586,2.80765443 10.212062,2.19407662 10.9539876,2.19407662 Z" id="path1948" fill="#7485E1" fill-rule="nonzero"></path>
        <path d="M23.02423,7.64945905 L23.02423,10.8275947 C23.02423,13.2915605 20.9352636,15.365405 18.5531519,15.3654053 L11.404432,15.3654053 C9.44627788,15.3654053 7.82590127,17.041321 7.82590127,19.002327 L7.82590127,25.8173836 C7.82590127,27.756989 9.51252217,28.8978426 11.404432,29.4543063 C13.6699556,30.1204596 15.842474,30.2408504 18.5531519,29.4543063 C20.354971,28.9326209 22.1316835,27.8827264 22.1316827,25.8173836 L22.1316827,23.0896931 L14.9829628,23.0896931 L14.9829628,22.1804627 L22.1316827,22.1804627 L25.7102145,22.1804627 C27.7902564,22.1804627 28.5653651,20.7295891 29.2887429,18.5518826 C30.0359681,16.3099676 30.0041741,14.1540031 29.2887429,11.2780392 C28.7746943,9.2073452 27.7929016,7.64945905 25.7102145,7.64945905 L23.02423,7.64945905 Z M19.0035964,24.908154 C19.7455225,24.908154 20.3465881,25.5160649 20.3465881,26.267828 C20.3465881,27.0222668 19.7455217,27.6358455 19.0035964,27.6358455 C18.2643203,27.6358455 17.6606047,27.0222668 17.6606047,26.267828 C17.6606047,25.5160649 18.2643195,24.908154 19.0035964,24.908154 Z" id="path1950" fill="#7485E1" fill-rule="nonzero"></path>
    </g>
</svg>