<?xml version="1.0" encoding="UTF-8"?>
<svg width="30px" height="30px" viewBox="0 0 30 30" version="1.1" xmlns="http://www.w3.org/2000/svg" xmlns:xlink="http://www.w3.org/1999/xlink">
    <title>js</title>
    <g id="js" stroke="none" stroke-width="1" fill="none" fill-rule="evenodd">
        <path d="M30,0 L30,30 L0,30 L0,0 L30,0 Z M22.8333333,13.6138095 C20.3157143,13.6138095 18.7047619,15.2233333 18.7047619,17.337619 C18.7047619,19.6328571 20.0561905,20.7185714 22.0904762,21.5852381 L22.7952381,21.887619 C24.0809524,22.45 24.847619,22.792381 24.847619,23.7590476 C24.847619,24.5657143 24.1014286,25.1495238 22.9333333,25.1495238 C21.5428571,25.1495238 20.7566667,24.4242857 20.152381,23.437619 L17.8614286,24.7685714 C18.6890476,26.4038095 20.3804762,27.6514286 22.9985714,27.6514286 C25.6761905,27.6514286 27.67,26.2609524 27.67,23.7228571 C27.67,21.3685714 26.317619,20.3214286 23.922381,19.2942857 L23.217619,18.992381 C22.0080952,18.4685714 21.4842857,18.1261905 21.4842857,17.2804762 C21.4842857,16.5961905 22.007619,16.072381 22.8333333,16.072381 C23.6428571,16.072381 24.1642857,16.4138095 24.647619,17.2804762 L26.8428571,15.8709524 C25.9142857,14.237619 24.6257143,13.6138095 22.8333333,13.6138095 Z M16.337619,13.7747619 L13.5185714,13.7747619 L13.5185714,23.3604762 C13.5185714,24.7695238 12.9342857,25.1319048 12.0080952,25.1319048 C11.0395238,25.1319048 10.6366667,24.467619 10.1938095,23.6819048 L7.89904762,25.0711905 C8.56380952,26.4780952 9.87095238,27.6461905 12.1280952,27.6461905 C14.6261905,27.6461905 16.337619,26.317619 16.337619,23.3985714 L16.337619,13.7747619 Z" id="Combined-Shape" fill="#7485E1" fill-rule="nonzero"></path>
    </g>
</svg>