<?xml version="1.0" encoding="UTF-8"?>
<svg width="30px" height="30px" viewBox="0 0 30 30" version="1.1" xmlns="http://www.w3.org/2000/svg" xmlns:xlink="http://www.w3.org/1999/xlink">
    <title>mongo</title>
    <g id="mongo" stroke="none" stroke-width="1" fill="none" fill-rule="evenodd">
        <path d="M15.0166994,0.0019451453 L15.0431323,0.0175063077 L15.5601427,0.731052137 C16.0433223,1.38524624 16.7925591,2.36943724 17.6164164,3.3437034 C27.7003526,16.1621345 17.5511412,25.094411 16.0714388,26.2821194 L15.7917211,26.4986688 L15.7375575,27.2290426 C15.6292722,28.5506158 15.4642032,30 15.4642032,30 L14.5284615,30 L14.3566575,28.3513255 C14.2982674,27.7479797 14.2383813,27.0729171 14.2009554,26.4986688 L14.0377479,26.3844098 C13.1290692,25.6774366 1.97876886,16.5756323 12.3879483,3.3437034 L12.7130603,2.95427335 C13.8338448,1.59505573 14.7583281,0.305218301 14.9612441,0.0175063077 C14.9768363,0.0019451453 14.9976337,-0.00324190884 15.0166994,0.0019451453 Z M15.0314323,10.4629442 C15.0314323,10.4162613 14.9612441,10.4162613 14.9612441,10.4629442 L14.2828319,25.4949757 C14.4348967,25.7401017 14.9963324,26.2186419 14.9963324,26.2186419 L15.2960627,25.948731 C15.4554312,25.7984552 15.6338063,25.6175387 15.7098328,25.4949757 L15.0314323,10.4629442 Z" id="Shape" fill="#7485E1" fill-rule="nonzero"></path>
    </g>
</svg>