<?xml version="1.0" encoding="UTF-8"?>
<svg width="30px" height="30px" viewBox="0 0 30 30" version="1.1" xmlns="http://www.w3.org/2000/svg" xmlns:xlink="http://www.w3.org/1999/xlink">
    <title>postgres</title>
    <g id="postgres" stroke="none" stroke-width="1" fill="none" fill-rule="evenodd">
        <path d="M21.4663673,0 L21.5599957,0.000848613739 C22.8173882,0.0158629751 24.0328526,0.23121414 25.1687122,0.690995665 C26.5252827,1.24011819 27.713001,2.11775693 28.6771106,3.34966661 C29.6390843,4.57878825 29.6023957,6.96174294 28.8393016,9.91624774 C28.2165205,12.3274969 27.1458978,14.9022579 25.7726034,17.2193229 L25.7640466,17.2336233 L25.7789012,17.233223 C26.1670761,17.2212396 26.6454508,17.1619675 27.2186695,17.0459123 L27.2694938,17.0355245 C27.5412613,16.9794208 27.7867857,16.952706 28.0161031,16.9605555 C28.365622,16.9725196 28.6897984,17.0604145 28.9816176,17.282169 C29.3906292,17.5929785 29.5850339,18.0754776 29.5383304,18.5632467 C29.5095048,18.8642993 29.4000521,19.1235767 29.2384612,19.367312 C28.8510064,19.9517288 28.0508793,20.5478044 27.1405794,20.9701847 C26.2583701,21.3800366 24.8740445,21.6086749 23.7516268,21.5576069 L23.7251141,21.5564006 L23.6986758,21.5540784 L23.4942443,21.5360704 L23.4922369,21.5535224 C23.4906877,21.5665696 23.4891201,21.5797884 23.4875434,21.5930999 L23.4827945,21.6332335 C23.4701054,21.7405766 23.4574076,21.8487946 23.4493537,21.9174313 L23.4480387,21.9279428 L23.4473509,21.9569974 C23.3702737,24.8247892 22.9527781,26.6977858 22.1063054,27.9285642 L22.0802589,27.9660409 C21.6474428,28.5822958 21.110141,29.0296286 20.4618408,29.3452255 C19.9740353,29.5826926 19.4903228,29.7258287 18.7717253,29.8798225 C16.7845426,30.3057071 15.4337978,29.5723175 14.7381379,28.1129475 C14.642428,27.9121651 14.5655527,27.7146328 14.4863287,27.4810398 C14.4847136,27.4762774 14.4813561,27.4661722 14.4767359,27.45221 L14.4689187,27.4285597 C14.437223,27.3325973 14.3745876,27.1424346 14.3608195,27.1052797 C14.0715366,26.3244646 13.9586253,25.3036147 13.8889547,23.5679331 C13.888693,23.5614036 13.8884339,23.5548938 13.8881773,23.5483959 L13.8859264,23.4900295 C13.8800612,23.3341371 13.8751387,23.1718148 13.8674571,22.8965343 C13.8609236,22.6623976 13.8598141,22.623232 13.8567941,22.5233655 C13.8554628,22.4793443 13.8541163,22.4364412 13.85275,22.3946081 L13.8513395,22.3531561 L13.8193768,22.367066 C13.4913954,22.5075785 13.14786,22.6091753 12.7919117,22.6732223 L12.7491386,22.6807278 C11.9050318,22.8250916 11.1069335,22.7536559 10.3160034,22.5558615 C9.71329755,22.405142 9.13537582,22.1182143 8.76963186,21.6712112 L8.76710088,21.6680865 L8.76147299,21.6728048 C7.56884541,22.6549408 6.17043337,22.5628175 5.00849923,21.4626319 L4.9675887,21.4233833 C4.07424741,20.5550838 3.29622165,19.0923882 2.57498917,17.1305296 C1.51292039,14.2415462 0.554406933,9.96362735 0.473576253,8.3472162 C0.336146832,5.59961609 0.962612912,3.54392624 2.30786507,2.18491542 C3.46409626,1.01685879 5.03277078,0.470070876 6.86408043,0.409404512 C8.17909478,0.365841623 9.55439141,0.572660683 10.9159296,0.94186148 C11.2649448,1.03650199 11.5929583,1.13672432 11.8954907,1.2383383 L11.9285511,1.24956483 L11.9706889,1.224758 C13.0112532,0.618474168 14.2378421,0.306421154 15.6371942,0.32030706 L15.6964245,0.32108785 C16.4396501,0.333104142 17.1364202,0.395353017 17.7894695,0.506692072 L17.857087,0.51849167 L17.8661576,0.5156723 C18.1153218,0.439397448 18.4215456,0.359965789 18.7376593,0.291476611 L18.7715643,0.284180998 C19.6497596,0.096516232 20.5916351,-0.0107144545 21.5599957,0.000848613739 L21.4663673,0 Z M21.5299216,2.51943635 C20.7617342,2.51026352 20.0032216,2.5966187 19.2979249,2.74733612 C19.0473295,2.80088677 18.8213226,2.85898717 18.6309418,2.91577462 C18.5787378,2.93134621 18.5325323,2.94585661 18.4946236,2.95837609 L18.4884745,2.96038648 L18.3931592,3.012059 L18.1972429,3.04823441 L18.1647777,3.05422902 L17.9219895,3.0990592 L17.6802459,3.04890069 C17.0723028,2.92276075 16.3994165,2.85155011 15.6553749,2.83952058 C14.4893579,2.82036104 13.5797303,3.10776895 12.8583551,3.65492602 L12.2840379,4.09054086 L11.6175514,3.81595707 C11.6081803,3.81209629 11.5813918,3.80142908 11.5383518,3.78492183 C11.4612356,3.75534523 11.3701287,3.72182729 11.2662098,3.68533175 C10.9641971,3.57926711 10.6244834,3.47255917 10.256735,3.37283885 C9.11750496,3.06392015 7.97850433,2.89263562 6.94747468,2.92679086 C5.70691133,2.96788739 4.74502058,3.3031706 4.09794083,3.95686841 C3.30105296,4.7619065 2.88452653,6.12869903 2.98919945,8.22140454 C3.0131654,8.70066353 3.21624795,9.91423609 3.51230522,11.2554127 L3.53263401,11.3470471 L3.54290456,11.3929993 C3.92844416,13.113692 4.41224455,14.8284009 4.93906535,16.261431 C5.53999269,17.8960418 6.16903455,19.0786464 6.72313126,19.6172109 C6.82957907,19.7206748 6.92011894,19.7867495 6.98838794,19.8195448 C6.99741974,19.8238835 7.00495756,19.827119 7.01107716,19.8294572 L7.01256571,19.8299636 L7.01354628,19.8296555 C7.02230046,19.8259581 7.03317558,19.8205724 7.04629342,19.8130818 L7.05655422,19.8070627 C7.14700384,19.75266 7.26232921,19.6493011 7.39547325,19.4892417 C7.97550102,18.7916363 8.58682407,18.0924252 9.19247036,17.4240516 C9.40441863,17.1901516 9.60070492,16.976609 9.7766472,16.7875756 C9.83852931,16.7210891 9.89355062,16.6623085 9.94112418,16.6117554 C9.97016008,16.5809009 9.99056578,16.5593261 10.0017536,16.5475534 L10.7304603,15.7807513 L11.6115636,16.3661196 C11.9124469,16.566014 12.2437677,16.6839743 12.5857771,16.7127231 L12.5899117,16.7130351 L14.6813435,14.9294068 L14.3779318,18.0347874 C14.3700548,18.115408 14.3734906,18.199576 14.3932283,18.3269525 L14.4021029,18.3842519 L17.6392947,13.8535964 L16.0998576,20.0267754 L16.1002281,20.0277723 C16.107603,20.0496055 16.1147609,20.0716856 16.1217237,20.0940152 L16.132024,20.1276971 C16.1970882,20.3446117 16.242744,20.5886327 16.2774358,20.8726961 C16.327706,21.2843187 16.353108,21.7428008 16.3744104,22.447231 C16.3775159,22.5499235 16.3786429,22.5897081 16.3852443,22.8262764 C16.3939275,23.1374501 16.398909,23.2976317 16.4056979,23.4669748 C16.4640723,24.9212405 16.560401,25.7921639 16.7226721,26.2301565 C16.7551578,26.3178232 16.846585,26.5954485 16.8674355,26.6591243 L16.870356,26.668058 C16.8714236,26.6713322 16.8718824,26.6727558 16.8716434,26.6720511 L16.8822782,26.703154 C16.9279465,26.835596 16.9684196,26.9381306 17.0117968,27.0291284 C17.1076899,27.2302948 17.2023071,27.3431383 17.3092795,27.4012192 C17.476743,27.4921439 17.7629209,27.5200622 18.2439208,27.4169764 C19.2757494,27.1958579 19.6822436,26.9979738 20.0190657,26.5183975 C20.5435856,25.771572 20.870997,24.3023551 20.9315793,21.8077457 L22.1901806,21.8382931 L20.9401844,21.6882931 C20.9412979,21.6790168 20.9583478,21.5330397 20.9770879,21.3743648 L20.9817999,21.3345033 C20.9825884,21.3278396 20.9833777,21.3211717 20.9841669,21.3145088 L20.9888918,21.274661 C21.0030113,21.1557234 21.0164121,21.044175 21.023084,20.9923296 C21.0665967,20.6542054 21.1078405,20.4255239 21.1756867,20.2056059 C21.2938751,19.8225082 21.4880245,19.5009315 21.8181126,19.2568549 C22.1556285,19.0072859 22.5328644,18.9161326 22.9429061,18.9247923 C23.0064439,18.9261341 23.0703982,18.9297583 23.136259,18.9356944 L23.1503961,18.9370359 L23.1422447,18.9288086 C22.887371,18.6678117 22.7365941,18.3761699 22.6746234,18.0966245 L22.6692339,18.0712458 L22.5642637,17.5542566 L22.8590979,17.1167988 C24.4662879,14.7321442 25.7285682,11.8881646 26.4005645,9.28636693 C26.7056105,8.10530701 26.869847,7.03773682 26.8828118,6.19565801 C26.8887693,5.8087132 26.8623202,5.48355057 26.8088468,5.23444549 C26.7864337,5.13003457 26.7604046,5.04447518 26.7330668,4.97911885 C26.7152829,4.93660289 26.7009206,4.91139717 26.6935918,4.90203311 C25.410728,3.26282913 23.6363639,2.5445891 21.5299216,2.51943635 Z" id="Path" fill="#7485E1" fill-rule="nonzero"></path>
        <path d="M27.5244487,18.268766 C24.1363483,18.9676433 23.903434,17.8205172 23.903434,17.8205172 C27.4807352,12.5123899 28.9761549,5.77451418 27.6856296,4.12545723 C24.1649742,-0.372858678 18.0705425,1.75455478 17.9688362,1.80978603 L17.9361016,1.81564593 C17.2667258,1.67669219 16.5176014,1.59391267 15.6756616,1.58017221 C14.1425903,1.55504873 12.9797031,1.98208059 12.0972828,2.65125434 C12.0972828,2.65125434 1.22541535,-1.82752857 1.73105071,8.28416831 C1.83861693,10.4353581 4.81430157,24.5610198 8.36358295,20.2944057 C9.66084378,18.7342576 10.9142564,17.4151064 10.9142564,17.4151064 C11.5368203,17.8286672 12.2821054,18.0396236 13.0634256,17.963849 L13.1241126,17.9123223 C13.1052531,18.1060358 13.1138746,18.295506 13.1484278,18.5197987 C12.2340812,19.5413748 12.502761,19.7207416 10.6749434,20.0969877 C8.82543744,20.4781507 9.9119439,21.1567541 10.6213287,21.3341003 C11.4813197,21.5491654 13.4709244,21.8538129 14.8152665,19.9719091 L14.7616518,20.1866374 C15.119914,20.4735705 15.3714856,22.0531169 15.3293213,23.4849534 C15.2871569,24.9168572 15.2590025,25.8999061 15.541288,26.6677552 C15.8235736,27.4356043 16.1049162,29.1632648 18.507745,28.6484017 C20.5155357,28.2181368 21.5559712,27.1031391 21.7007175,25.2432605 C21.8034341,23.9210109 22.0358769,24.1164756 22.0505603,22.9343248 L22.2369994,22.3746706 C22.4519972,20.5822818 22.2711485,20.0040375 23.5081265,20.2729868 L23.8087326,20.29939 C24.7191727,20.3408135 25.9107532,20.1529598 26.6101021,19.8279037 C28.1160293,19.1290263 29.009159,17.9621652 27.524314,18.268766 L27.5244487,18.268766 Z" id="Path" fill="#7485E1" fill-rule="nonzero"></path>
        <path d="M24.7019662,1.37655202 C25.9779887,1.86710152 27.0900241,2.6714496 27.9925266,3.82465742 C29.5032764,5.75530096 27.7553387,12.6434102 24.3882193,17.7721147 L24.3928762,17.7755365 C24.552493,17.8910204 24.8182037,17.9804934 25.2184537,18.0165514 C25.7414576,18.0636682 26.4315707,18.0114168 27.3057941,17.8379366 L27.4160321,17.8156185 C27.8817178,17.7194388 28.216656,17.7309235 28.4502574,17.9086727 C28.619771,18.0376569 28.6987612,18.2341776 28.6788089,18.44135 C28.6649794,18.5849465 28.6067863,18.7227043 28.5148609,18.8613441 C28.2265285,19.2962007 27.5454304,19.8038448 26.7631839,20.1671293 C26.1026423,20.4736898 25.0527889,20.6720634 24.1191131,20.6823243 C23.6366543,20.6876265 23.2131113,20.6421425 22.8890479,20.5414233 L22.8765747,20.5374975 L22.8465695,20.8097522 C22.8063546,21.1690435 22.758094,21.5803273 22.7057347,22.0109767 L22.6613039,22.3731002 L22.6227285,22.6824182 L22.5742735,23.0646209 C22.4394716,24.1182482 22.2992844,25.1334386 22.2076279,25.6644961 C21.8537642,27.716921 20.9573382,28.6486764 18.8268444,29.1054252 C17.6169675,29.3646143 16.6736494,29.1586663 15.9755831,28.5706501 C15.4854064,28.1577498 15.2105656,27.6862708 14.9207353,26.9618148 C14.6300647,26.2348082 14.4865816,23.8014277 14.5117618,20.877277 C13.9520898,21.3854908 13.3001661,21.6885691 12.5834775,21.8111802 C11.8714153,21.9329998 11.1829991,21.8713588 10.4955442,21.6993335 C9.9832867,21.5712813 9.48297988,21.2975424 9.29519212,20.949322 C9.12762986,20.6386063 9.2065814,20.2960623 9.49734877,20.0589419 C9.71127449,19.8844857 10.0473366,19.7543323 10.525075,19.6525765 L10.6909792,19.6178692 C10.9592858,19.5608534 11.1710854,19.5095276 11.3428542,19.4599268 L11.3683214,19.4524991 C11.7687361,19.3345315 11.9361616,19.2372426 12.1151151,19.0400403 L12.1330636,19.0198256 C12.1671707,18.9792858 12.3373374,18.765453 12.5121875,18.5523063 L12.5397797,18.5187257 C12.5719715,18.4796139 12.604088,18.4408348 12.6353113,18.4034719 L12.6343057,18.3933941 L12.6315534,18.356052 L12.6293555,18.3560546 C12.0343551,18.3412074 11.4710604,18.1823952 10.9681802,17.9115223 L10.8421554,18.0461901 C10.6989074,18.1998815 10.5412194,18.3710856 10.3716796,18.5576088 C9.80638128,19.1795352 9.22565888,19.8432789 8.66240737,20.5209006 C7.66866466,21.7155644 6.5409513,21.7634424 5.52852977,20.7794053 C4.7482487,20.0210004 4.01986137,18.6516273 3.33870783,16.7987922 C2.79592982,15.3223584 2.30249288,13.5832223 1.90626329,11.8345087 L1.87999252,11.7179163 C1.55180156,10.253176 1.32360587,8.90740007 1.28884448,8.28388337 L1.2877345,8.26290781 C1.16123202,5.73378465 1.71808052,3.90605415 2.88100818,2.72836696 C3.8678289,1.72902181 5.23480094,1.24862988 6.87003371,1.18948898 C8.09493639,1.14518835 9.39634516,1.33749366 10.6879527,1.68452506 C11.0674514,1.78648946 11.4203728,1.89529257 11.7396469,2.00472528 L11.8075452,2.02818253 C11.8936188,2.05815499 11.9727606,2.08663724 12.0445505,2.11326479 C13.0287292,1.44155014 14.2314782,1.09480093 15.6584975,1.11820238 C16.4023668,1.13039821 17.1065343,1.22172909 17.7708164,1.38502308 L17.7824429,1.37991142 L17.8025855,1.37164504 L17.8135725,1.36737553 C17.8541569,1.35183253 17.9154829,1.33066383 17.9878495,1.30747226 C18.1853681,1.24417278 18.430253,1.17625122 18.7051576,1.11199251 C19.5061768,0.924754954 20.3845639,0.806686268 21.2943204,0.798235377 C22.4852352,0.787172755 23.6343095,0.966105899 24.7019662,1.37655202 Z M12.1454864,3.08914053 C11.3784902,3.73355514 10.8030521,4.62930705 10.3982746,5.71711081 C10.1003231,6.51782894 9.9100539,7.3798127 9.80769378,8.24954879 C9.78958473,8.40341817 9.77478254,8.55320338 9.76298333,8.6981496 L9.78693477,8.684691 C10.2842812,8.40775934 10.8757881,8.17180328 11.4466319,8.04012704 C12.1607532,7.87540102 12.8153156,7.87570937 13.361797,8.08672903 C14.0302499,8.34484705 14.4841899,8.89966867 14.6639706,9.73087354 C14.9761202,11.1744432 15.0602672,12.3582111 14.9528077,13.3717313 C14.8702316,14.15056 14.6932147,14.7625941 14.3885085,15.4757312 L14.3469647,15.5716689 L14.1304539,16.0568228 L14.1029761,16.1193041 C14.0457554,16.2503172 14.003106,16.354183 13.9658035,16.4545579 L13.8681552,16.7192574 C13.7025967,17.1712753 13.5965582,17.4811457 13.5346426,17.7175591 C13.5931184,17.7023263 13.6523024,17.6921733 13.712215,17.6869407 C13.950939,17.6660915 14.1210053,17.7107299 14.3872716,17.8210251 C14.9076841,18.0367573 15.2807047,18.589767 15.359061,19.1631742 C15.3741987,19.2085699 15.3817996,19.2573337 15.3803841,19.3079393 L15.3748643,19.5149315 C15.2892589,22.8899572 15.4261155,25.9642912 15.7002898,26.6500381 C15.9426185,27.25576 16.1594986,27.6278095 16.5164844,27.9285165 C17.0086872,28.3431235 17.6864401,28.4910925 18.6509093,28.2844765 C20.42842,27.9034025 21.0718085,27.249322 21.371288,25.5728876 L21.38915,25.4696231 C21.4735423,24.9688747 21.5968318,24.0796311 21.7184502,23.1372571 L21.7638996,22.7820314 L21.7876371,22.594077 L21.8314028,22.2430902 L21.8931142,21.7377149 C21.9997032,20.853327 22.0858423,20.0751301 22.1146171,19.708281 L22.1127067,19.6666215 C22.0720328,18.6621351 22.4055861,18.0716129 23.0352706,17.7885784 C23.107365,17.7561729 23.1801886,17.7289422 23.2606113,17.7031498 L23.310528,17.6876226 L23.3642481,17.6718223 L23.3638459,17.671222 C23.3381032,17.6343314 23.3070761,17.5924014 23.2699868,17.5443768 L23.2161589,17.4758819 L23.05328,17.2712616 C23.0265924,17.2376039 23.0030539,17.2077867 22.9877867,17.1881686 C22.8776489,17.0466435 22.7835118,16.9178464 22.6928124,16.7817487 C22.5203032,16.5228928 22.3722875,16.2542774 22.2458213,15.9589914 L22.2162606,15.8890371 C22.2062467,15.8675662 22.1784853,15.8147881 22.1377963,15.7390338 L21.6162781,14.7793892 L21.4593663,14.4885757 C21.3384668,14.2634151 21.2274027,14.0535131 21.1483107,13.8971333 L21.1360914,13.8728921 C20.8316855,13.2668583 20.5813271,12.7008198 20.3884956,12.1617727 L20.3563783,12.070722 C19.8993212,10.75618 19.8193215,9.68957356 20.2587033,8.90720032 C20.7537731,8.02566779 21.8216766,7.65862797 23.474432,7.81739452 L23.5301439,7.82294531 L23.5208925,7.79556426 C23.4838946,7.68774394 23.4396013,7.57013017 23.3888824,7.44637606 L23.3734748,7.40906927 C23.0760097,6.69425587 22.6322821,5.92089847 22.0722404,5.2049215 C20.5207484,3.22143966 18.3861399,2.00262434 15.6447326,1.95767863 C14.1979115,1.93395245 13.0470511,2.33166428 12.1454864,3.08914053 Z M13.7852635,18.523346 C13.6940163,18.5313152 13.5847591,18.5927987 13.4375506,18.7575457 L13.4090712,18.7897505 C13.3642991,18.8409207 13.3106878,18.9044449 13.2536304,18.9731712 L13.0876728,19.1753216 C12.9361343,19.3614634 12.795668,19.5371683 12.7598015,19.5786116 L12.7567483,19.5820997 C12.4626556,19.9133414 12.1606455,20.0943376 11.6055927,20.2578637 L11.5477001,20.2745936 C11.3411637,20.3331579 11.0928508,20.3920057 10.7807962,20.4569273 L10.735781,20.4662437 C10.4764813,20.519692 10.2839257,20.5785934 10.1585203,20.6346735 L10.1398219,20.6431995 L10.1459593,20.6474964 C10.1659691,20.6610077 10.1883476,20.6751366 10.2128846,20.6894932 L10.2479631,20.7093397 C10.38284,20.7831365 10.5491216,20.8473028 10.6992554,20.8848327 C11.2834882,21.0310281 11.8619811,21.0828266 12.4418975,20.9836145 C13.2307028,20.8486657 13.9088175,20.4428789 14.4496899,19.6855383 C14.6683986,19.3793534 14.4350561,18.7497035 14.0658613,18.5966573 L14.0288767,18.581574 C13.9055939,18.5321939 13.8450587,18.5181237 13.7852635,18.523346 Z M6.900379,2.02852951 C5.46159707,2.08056544 4.29621885,2.4901117 3.47841909,3.31829073 C2.50746632,4.30156654 2.02046858,5.87799094 2.12298841,8.15185325 L2.12627562,8.22097176 C2.15401625,8.77574956 2.37700002,10.0960418 2.69926828,11.5343487 C3.09234224,13.2886667 3.58589274,15.0379292 4.12673308,16.5090923 L4.16952513,16.6246477 C4.79794456,18.3092459 5.46133718,19.5432645 6.1137092,20.1773465 C6.77151339,20.8167083 7.32746561,20.7997778 7.99653161,20.0083215 L8.01684118,19.9841007 C8.58855231,19.2963016 9.17725902,18.6234322 9.75038959,17.9928889 L9.836216,17.8986586 C9.9916642,17.7283429 10.1365374,17.5715506 10.2687945,17.4300048 C9.23496914,16.5432336 8.62090144,15.1151512 8.80910459,13.5712241 L8.81974702,13.4899019 C8.96485515,12.4522834 8.98275977,11.4913272 8.92731398,10.3996729 L8.89450668,9.8194485 C8.89069254,9.74619157 8.88850466,9.69105474 8.88779714,9.64509832 L8.8868586,9.54392386 C8.88624345,9.43054329 8.88876442,9.28349093 8.89634918,9.1071736 C8.90908884,8.81102393 8.93397425,8.49031297 8.97385961,8.15141401 C9.08353282,7.21953988 9.28790549,6.2936626 9.61139648,5.42430928 C10.0070577,4.36100499 10.5569353,3.44936263 11.2843785,2.73758262 C11.032028,2.65487897 10.759271,2.57305298 10.4700969,2.49535716 C9.25281482,2.16829566 8.03038577,1.98766095 6.900379,2.02852951 Z M23.8370815,18.4070714 L23.8175811,18.4137221 C23.8011535,18.4191425 23.7840399,18.4245308 23.7661417,18.429963 L23.7303452,18.4405542 C23.6965046,18.4502149 23.5823159,18.4824512 23.5469279,18.4932689 C23.4810498,18.513407 23.4276915,18.532695 23.379481,18.5543649 C23.0814,18.6883482 22.9280629,18.9501966 22.950058,19.595101 L22.9525732,19.6559039 L22.959459,19.6609526 C22.9921702,19.6839053 23.0461085,19.7095751 23.1194866,19.7336755 L23.1382351,19.7396655 C23.3663033,19.8105493 23.7076517,19.8472065 24.1098867,19.8427859 C24.9328272,19.8337419 25.8678066,19.6570742 26.4096406,19.4056065 C26.888372,19.183278 27.3180382,18.8990569 27.5881422,18.6507295 L27.6064123,18.6336543 L27.4754436,18.6602347 C25.6862816,19.0162005 24.5509067,18.9114899 23.9200761,18.4695323 L23.9007305,18.4557589 C23.8841928,18.4437937 23.8681781,18.4317199 23.8526765,18.4195532 L23.8370815,18.4070714 Z M11.635344,8.85823313 C11.1449745,8.97134642 10.6265446,9.17815157 10.1953829,9.41823032 C10.0134477,9.51953519 9.86078823,9.61977925 9.75924458,9.7023664 L9.73687553,9.72099241 L9.73049829,9.72643859 L9.7354631,9.82222592 L9.7604218,10.2544485 C9.82476472,11.436935 9.8095638,12.4740981 9.65124485,13.6061825 C9.36004186,15.6885491 10.8613056,17.5048581 12.7053878,17.5173544 L12.7220788,17.5173544 L12.7283813,17.4915295 C12.7355485,17.4628006 12.7430824,17.4337623 12.7509786,17.4043992 L12.7889388,17.2679567 L12.8057217,17.2098084 L12.8178441,17.1691471 L12.8303628,17.1284948 L12.8572259,17.0454757 C12.9102035,16.8865472 12.9918657,16.6659149 13.1787266,16.1622912 L13.2005503,16.1045588 C13.2376849,16.0079461 13.279008,15.90838 13.3302112,15.7909524 L13.5829006,15.2234641 L13.5918662,15.2029185 C13.8814773,14.5354539 14.0429942,13.9896785 14.1178983,13.2832092 C14.2153698,12.3638922 14.1375244,11.2687738 13.8433521,9.90834205 C13.6196347,8.87399888 12.8520083,8.57758576 11.635344,8.85823313 Z M21.3021191,1.63778825 C20.5668735,1.64461808 19.8510385,1.7290213 19.1865672,1.86576268 C20.5829994,2.48073312 21.7660518,3.45075706 22.7335501,4.68764085 C23.341624,5.46502376 23.8229713,6.30394738 24.148624,7.08649577 L24.1833168,7.17117521 C24.2962059,7.45116495 24.3813114,7.70748779 24.4311811,7.91265751 C24.4589381,8.02685338 24.4758422,8.12510449 24.4802813,8.20756685 C24.4836561,8.27025944 24.4807249,8.32782737 24.46621,8.38817155 L24.4647786,8.39392792 C24.4797222,8.79643163 24.4524018,9.16411117 24.3847392,9.64215758 L24.3584616,9.82100419 L24.3095039,10.1409338 C24.2352447,10.6325142 24.2034648,10.9216103 24.1918667,11.285271 C24.1905798,11.3248817 24.1897044,11.3636627 24.1892749,11.4022428 L24.1890139,11.477837 L24.1893212,11.5150244 C24.192877,11.8071573 24.223633,12.122644 24.2963085,12.7301534 L24.3239682,12.9639134 C24.4199512,13.7937823 24.4438962,14.2442074 24.3977044,14.7915128 C24.3365171,15.5164935 24.1352301,16.1771847 23.7550318,16.8047515 L23.8978276,16.9841875 C25.3839664,14.6420685 26.5461476,11.9456488 27.1897516,9.45383239 C27.8283517,6.98138898 27.8587069,5.01603729 27.3313292,4.34208167 C25.8285152,2.42180246 23.7304532,1.61523102 21.3021191,1.63778825 Z M20.9907496,9.31831845 C20.6929289,9.84862468 20.768576,10.7315965 21.1790255,11.878979 C21.3512222,12.3603427 21.5756256,12.871701 21.8488005,13.4209134 L21.8863536,13.4960414 C21.968243,13.6590727 22.0988179,13.9045331 22.2421682,14.1705647 L22.8038066,15.2074797 C22.9060525,15.3974482 22.9788379,15.5354833 22.9951951,15.5751312 C23.0617061,15.7363831 23.1355735,15.8877917 23.2178178,16.0337291 C23.4127137,15.6222704 23.5213906,15.1912805 23.5610897,14.7209038 L23.5653884,14.6670754 C23.6003293,14.2026559 23.5750264,13.7873496 23.4838454,13.0080363 L23.4442748,12.6747503 C23.3877862,12.1930077 23.3594436,11.8952835 23.3515577,11.6243523 L23.3504841,11.5818999 C23.3500308,11.5607616 23.3497016,11.5397382 23.3494929,11.518753 L23.3492331,11.4759186 C23.3490754,11.4045357 23.3502844,11.3329907 23.3527123,11.2582586 L23.355379,11.1837573 C23.3700423,10.8156276 23.4050487,10.5078453 23.4784401,10.0214405 L23.5355695,9.64712511 C23.5390799,9.62358621 23.5423885,9.60114339 23.5455886,9.57915367 C23.5966809,9.22806707 23.6242191,8.95069033 23.628488,8.67867281 L23.539974,8.6679692 C22.1071432,8.50178305 21.3053561,8.75812283 20.9907496,9.31831845 Z M12.7336133,9.24622489 C13.1576929,9.30524836 13.4923358,9.49225999 13.457561,9.7419279 C13.4209865,10.0042602 13.0021879,10.2880586 12.626335,10.2356373 C12.2476637,10.1831304 11.8660208,9.78237155 11.9024188,9.52467876 L11.9194191,9.40431868 L11.9535769,9.40430009 L11.9579389,9.39869188 C12.0824524,9.24695089 12.3917287,9.19850336 12.7336133,9.24622489 Z M22.8483003,9.25465047 C22.8783139,9.47006834 22.5273597,9.83874315 22.1840839,9.88633304 C21.8447412,9.93362594 21.4625942,9.67478964 21.4312095,9.45202842 C21.4049426,9.25867773 21.70755,9.08960782 22.0956644,9.03552813 C22.4838463,8.98143904 22.8213306,9.06139958 22.8483003,9.25465047 Z" id="Shape" fill="#FFFFFF" fill-rule="nonzero"></path>
    </g>
</svg>