<?xml version="1.0" encoding="UTF-8"?>
<svg width="30px" height="30px" viewBox="0 0 30 30" version="1.1" xmlns="http://www.w3.org/2000/svg" xmlns:xlink="http://www.w3.org/1999/xlink">
    <title>react</title>
    <g id="react" stroke="none" stroke-width="1" fill="none" fill-rule="evenodd">
        <path d="M22.5,2.01000484 C24.3400498,3.07235806 24.6267487,6.15076843 23.6247521,10.0206008 C27.4771827,11.0880544 30,12.8756014 30,15.0003859 C30,17.1251703 27.4771827,18.9127174 23.6245721,19.9798653 C24.6267487,23.8500034 24.3400498,26.9284137 22.5,27.9907669 C20.6597603,29.0532298 17.8500391,27.761937 14.9993616,24.9586648 C12.1492909,27.7622449 9.3400203,29.0531032 7.5,27.9907669 C5.65995025,26.9284137 5.37325127,23.8500034 6.3752479,19.980171 C2.52281734,18.9127174 0,17.1251703 0,15.0003859 C0,12.8756014 2.52281734,11.0880544 6.37542785,10.0209065 C5.37325127,6.15076843 5.65995025,3.07235806 7.5,2.01000484 C9.34023972,0.94754194 12.1499609,2.23883478 15.0006384,5.042107 C17.8507091,2.23852689 20.6599797,0.94766862 22.5,2.01000484 Z M22.6302345,20.2328289 L22.4580619,20.2717369 C21.2073454,20.5531261 19.8437941,20.7640312 18.4012467,20.8935844 C17.5304891,22.1324836 16.6249459,23.2518784 15.7156755,24.2246395 C18.2419146,26.7175327 20.6290011,27.8920801 21.9895176,27.1065856 C23.3075229,26.3456348 23.5142124,23.8306052 22.7111036,20.5524216 L22.6302345,20.2328289 Z M7.36919808,20.2322591 L7.36076414,20.2674314 C6.47480824,23.6843464 6.6545344,26.3237286 8.01048237,27.1065856 C9.37102055,27.8920926 11.7581613,26.7174953 14.2837809,24.2244932 C13.3750541,23.2518784 12.4695109,22.1324836 11.5978155,20.8937616 C10.089515,20.7580418 8.66674584,20.5334513 7.36919808,20.2322591 Z M12.9297152,20.9885792 L13.1396073,21.2662641 C13.7544554,22.0750155 14.378965,22.8180849 15.0002007,23.486126 C15.6916594,22.7421395 16.3875802,21.9050959 17.0696939,20.9879053 C16.3933683,21.0246712 15.7022099,21.0432295 15,21.0432295 C14.5318601,21.0432295 14.0686319,21.0349814 13.6112608,21.0187887 L12.9297152,20.9885792 Z M15,9.97850698 C14.0273776,9.97850698 13.078433,10.0161384 12.162577,10.0871815 C11.6440789,10.8444841 11.1371312,11.6473131 10.6509253,12.4894464 C10.1646341,13.3317275 9.72276786,14.1723188 9.3263776,15.0009618 C9.72313125,15.8291443 10.164834,16.6693906 10.6509253,17.5113253 C11.1370025,18.3532358 11.6438105,19.1558627 12.1630018,19.9131748 C13.078433,19.9846334 14.0273776,20.0222648 15,20.0222648 C15.9726224,20.0222648 16.921567,19.9846334 17.837423,19.9135903 C18.3561895,19.1558627 18.8629975,18.3532358 19.3490747,17.5113253 C19.835166,16.6693906 20.2768688,15.8291443 20.6731334,15.0008322 C20.2772321,14.1723188 19.8353659,13.3317275 19.3490747,12.4894464 C18.8628688,11.6473131 18.3559211,10.8444841 17.8365858,10.0869956 C16.921567,10.0161384 15.9726224,9.97850698 15,9.97850698 Z M21.2206109,16.2027105 L21.1741378,16.2935684 C20.8803759,16.8675176 20.5665469,17.4445312 20.2332561,18.0218077 C19.8822461,18.6297749 19.5206956,19.2189022 19.1510851,19.7869408 C20.2860589,19.6543786 21.3585932,19.4702707 22.3485597,19.2431755 C22.0503849,18.2723182 21.6736218,17.2515637 21.2206109,16.2027105 Z M8.77948165,16.2026482 L8.643394,16.5221777 C8.25047227,17.4588998 7.91924681,18.3711548 7.65134336,19.2430733 C8.64140678,19.4702707 9.71394105,19.6543786 10.8489469,19.7864884 C10.4793044,19.2189022 10.1177539,18.6297749 9.76674389,18.0218077 C9.41584906,17.41404 9.08652613,16.8065637 8.77948165,16.2026482 Z M23.3462558,11.0085508 L23.259834,11.286411 C22.8828915,12.4769939 22.3956644,13.7253779 21.8050024,14.9998669 C22.4414322,16.3740351 22.9580954,17.7178482 23.3459342,18.9915976 C26.7681627,18.0514735 28.9790353,16.5714253 28.9790353,15.0003859 C28.9790353,13.4769537 26.9001248,12.0390817 23.6539743,11.0955465 L23.3462558,11.0085508 Z M6.65379462,11.0082833 L6.44989098,11.0656392 C3.1442867,12.0085366 1.02096473,13.4607673 1.02096473,15.0003859 C1.02096473,16.5714253 3.23183726,18.0514735 6.65374415,18.992221 C7.04190456,17.7178482 7.55856783,16.3740351 8.19547028,14.999885 C7.55816374,13.6257515 7.04156774,12.2819819 6.65379462,11.0082833 Z M15,12.3000667 C16.4913451,12.3000667 17.7003192,13.5090408 17.7003192,15.0003859 C17.7003192,16.491731 16.4913451,17.7007051 15,17.7007051 C13.5086549,17.7007051 12.2996808,16.491731 12.2996808,15.0003859 C12.2996808,13.5090408 13.5086549,12.3000667 15,12.3000667 Z M10.8489149,10.213831 L10.574378,10.2474052 C9.54073046,10.3765011 8.56121867,10.548896 7.65144026,10.7575963 C7.94961507,11.7284536 8.32637821,12.7492081 8.77938913,13.7980613 C9.08652613,13.194208 9.41584906,12.5867317 9.76674389,11.9789641 C10.0007506,11.5736526 10.2394419,11.1767145 10.4820829,10.7888159 L10.8489149,10.213831 Z M19.1510531,10.2142834 L19.2069978,10.300017 C19.5571714,10.8413968 19.8999654,11.4016876 20.2332561,11.9789641 C20.5841509,12.5867317 20.9134739,13.194208 21.2205183,13.7981235 C21.6736218,12.7492081 22.0503849,11.7284536 22.3486566,10.7576984 C21.3585932,10.5305011 20.2860589,10.3463932 19.1510531,10.2142834 Z M15.9772285,5.52285447 L15.7156755,5.77613225 C16.6249459,6.7488934 17.5304891,7.86828822 18.4021845,9.10701016 C19.910485,9.24273001 21.3332542,9.46732046 22.6308019,9.76851272 C23.5263908,6.33425184 23.3500392,3.67968375 21.9895176,2.89418623 C20.675943,2.13579358 18.405416,3.20452153 15.9772285,5.52285447 L15.9772285,5.52285447 Z M8.01048237,2.89418623 C6.64996076,3.67968375 6.47360919,6.33425184 7.36976554,9.76794284 C8.66674584,9.46732046 10.089515,9.24273001 11.5987533,9.10718738 C12.4695109,7.86828822 13.3750541,6.7488934 14.2843245,5.77613225 C11.7581613,3.28327644 9.37102055,2.10867915 8.01048237,2.89418623 Z M14.9997993,6.51464581 L14.8749009,6.65035638 C14.2243945,7.3599538 13.5712549,8.15102746 12.9303061,9.01286644 C13.6066317,8.97610058 14.2977901,8.95754225 15,8.95754225 C15.7022099,8.95754225 16.3933683,8.97610058 17.0702848,9.01219258 C16.3875802,8.09567587 15.6916594,7.25863231 14.9997993,6.51464581 Z" id="Shape" fill="#7485E1" fill-rule="nonzero"></path>
    </g>
</svg>