<?xml version="1.0" encoding="UTF-8"?>
<svg width="30px" height="30px" viewBox="0 0 30 30" version="1.1" xmlns="http://www.w3.org/2000/svg" xmlns:xlink="http://www.w3.org/1999/xlink">
    <title>skill-django</title>
    <g id="skill-django" stroke="none" stroke-width="1" fill="none" fill-rule="evenodd">
        <path d="M15,0 C23.2842712,0 30,6.71572875 30,15 C30,23.2842712 23.2842712,30 15,30 C6.71572875,30 0,23.2842712 0,15 C0,6.71572875 6.71572875,0 15,0 Z M21.5039062,11.015625 L18.1461475,11.015625 L18.1460955,17.7501139 C18.1428603,20.6085199 17.9882836,21.7093523 17.5135875,22.6603596 L17.4896693,22.7086799 C17.0306936,23.6212835 16.3106767,24.2237755 14.8535156,24.9108012 L17.9715851,26.3964844 C19.4541697,25.6535723 20.1738,24.9764807 20.7190085,23.9057346 L20.7613846,23.8238712 C21.317137,22.7277305 21.5039062,21.436965 21.5039062,18.8151448 L21.5039062,11.015625 Z M16.171875,5.83007812 L12.8019971,5.83007812 L12.8019971,10.958158 C12.2986046,10.8271384 11.8828753,10.7836061 11.335863,10.7836061 C7.81296277,10.7836061 5.53710938,13.0109397 5.53710938,16.4395683 C5.53710938,19.9993574 7.68153866,21.8554688 11.7954945,21.8554688 C13.1739654,21.8554688 14.443175,21.7244491 16.171875,21.3969001 L16.171875,5.83007812 Z M11.6418245,13.5058594 C12.0552985,13.5058594 12.3817253,13.5495186 12.7734375,13.6803556 L12.7734375,19.0729786 C12.2946782,19.1383266 11.9898727,19.1601562 11.6200627,19.1601562 C9.90074105,19.1601562 8.96484375,18.1778229 8.96484375,16.3875115 C8.96484375,14.5538225 9.94426462,13.5058594 11.6418245,13.5058594 Z M21.5039062,5.859375 L18.1347656,5.859375 L18.1347656,9.31640625 L21.5039062,9.31640625 L21.5039062,5.859375 Z" id="Combined-Shape" fill="#7485E1"></path>
    </g>
</svg>