<?xml version="1.0" encoding="UTF-8"?>
<svg width="30px" height="31px" viewBox="0 0 30 31" version="1.1" xmlns="http://www.w3.org/2000/svg" xmlns:xlink="http://www.w3.org/1999/xlink">
    <title>node</title>
    <g id="node" stroke="none" stroke-width="1" fill="none" fill-rule="evenodd">
        <path d="M16.1634403,0.295119859 L27.1537314,6.6460442 C27.8636701,7.05604755 28.3066938,7.82377194 28.3066938,8.64928204 L28.3066938,21.3346205 C28.3066938,22.1573789 27.8636701,22.9251033 27.1537314,23.3378584 L16.1634403,29.686031 C15.8112226,29.8896568 15.4122261,29.9942214 15.0049745,29.9942214 L15.0060751,30 C14.6043269,30 14.2053303,29.8946099 13.8531127,29.6918096 L10.18317,27.519067 C9.7152467,27.257387 9.84168086,27.1400853 10.0011724,27.0724993 L10.0425596,27.0561562 L10.3643803,26.9424013 C10.8694047,26.7613667 11.0738954,26.664664 11.7425586,26.2849294 C11.8245592,26.2381505 11.9318755,26.2546607 12.0158024,26.3041913 L14.8351945,27.9772251 C14.9370075,28.0322591 15.0814717,28.0322591 15.175855,27.9772251 L26.1688978,21.6318042 C26.2707107,21.5740184 26.3367515,21.4556953 26.3367515,21.3346205 L26.3367515,8.64928204 C26.3367515,8.52270382 26.2707107,8.40988411 26.1666965,8.346595 L15.1780564,2.00667746 C15.0762435,1.94614005 14.9414102,1.94614005 14.8395973,2.00667746 L3.85315856,8.346595 C3.74666776,8.40713241 3.67897593,8.52545552 3.67897593,8.64653034 L3.67897593,21.3318688 C3.67897593,21.4529436 3.74501674,21.568515 3.84958135,21.6263008 L6.8599415,23.3653754 C8.49445149,24.1826304 9.49331871,23.2195352 9.49331871,22.2509367 L9.49331871,9.73070026 C9.49331871,9.55183974 9.63365543,9.41425472 9.81251595,9.41425472 L11.2048763,9.41425472 C11.3782334,9.41425472 11.5213218,9.55183974 11.5213218,9.73070026 L11.5213218,22.2564401 C11.5213218,24.4357868 10.3325873,25.6878104 8.26606037,25.6878104 L8.11556658,25.6874582 L8.04127067,25.6866217 C7.49730574,25.6779043 6.96186448,25.6052594 5.73174437,24.9998853 L2.84796243,23.3378584 C2.13527205,22.9251033 1.695,22.1546272 1.695,21.3318688 L1.695,8.64653034 C1.695,7.82102024 2.13527205,7.05054415 2.84796243,6.6432925 L13.852012,0.295119859 C14.5481922,-0.0983732865 15.4727635,-0.0983732865 16.1634403,0.295119859 Z M17.9536965,9.08460103 C21.4731212,9.08460103 23.2176992,10.306356 23.4378353,12.9314781 C23.4460904,13.0222842 23.41307,13.1103386 23.3525326,13.1763794 C23.2919951,13.2396685 23.2066924,13.2781923 23.118638,13.2781923 L21.6905056,13.2781923 C21.5419137,13.2781923 21.4125838,13.1736277 21.3823151,13.0305393 C21.0428784,11.5288713 20.2291235,11.0347943 18.0366303,11.0220523 L17.9481931,11.0217981 C15.4193805,11.0217981 15.1249486,11.9023422 15.1249486,12.5627502 L15.1259581,12.6333079 C15.1475803,13.3470268 15.5396172,13.5908253 18.4888581,13.9955082 L19.0843881,14.0758137 C22.3263872,14.5232079 23.8671005,15.177581 23.8671005,17.504804 C23.8671005,19.8987833 21.8693661,21.2718818 18.3857135,21.2718818 L18.4016733,21.2589488 C13.5917012,21.2589488 12.583203,19.0509844 12.583203,17.1990901 C12.583203,17.0229813 12.7251907,16.8826446 12.9015747,16.8826446 L14.3214521,16.8826446 C14.478299,16.8826446 14.6103806,16.9968401 14.6351459,17.1517609 L14.6499312,17.2461179 C14.8763633,18.6147764 15.537026,19.3125832 18.3016541,19.3280915 L18.3967203,19.3283558 C20.6827595,19.3283558 21.6722543,18.818846 21.6982344,17.6251179 L21.6983995,17.5341349 L21.697219,17.492357 C21.6717838,16.8473416 21.2975974,16.3595218 18.1216511,16.022232 L17.6396275,15.9730876 C14.7348411,15.666961 12.9483536,14.9828707 12.9483536,12.6232876 C12.9483536,10.4054172 14.8195099,9.08460103 17.9536965,9.08460103 Z" id="Shape" fill="#7485E1" fill-rule="nonzero"></path>
    </g>
</svg>